<svg id="Warstwa_2" data-name="Warstwa 2" xmlns="http://www.w3.org/2000/svg" width="128.846" height="101.114" viewBox="0 0 128.846 101.114">
  <g id="Layer_1" data-name="Layer 1" transform="translate(0 0)">
    <path id="Path_40" data-name="Path 40" d="M121.2.713A47.429,47.429,0,0,1,110.2,85.8a49,49,0,0,1-6.5,1.56A47.423,47.423,0,1,0,121.2.735Z" transform="translate(-47.905 -0.03)" fill="#500130"/>
    <path id="Path_41" data-name="Path 41" d="M33.514,154.772,21.467,149.65,10.4,156.639,11.583,143.6,1.5,135.236l12.779-2.895L19.1,120.16l6.726,11.234,13.064.839L30.28,142.1Z" transform="translate(-0.693 -55.525)" fill="#500130"/>
    <path id="Path_42" data-name="Path 42" d="M25.471,49.932l-9.593-4.084L7.086,51.417l.931-10.373L0,34.383l10.164-2.3L14,22.39l5.348,8.926,10.395.678L22.9,39.85Z" transform="translate(0 -10.359)" fill="#500130"/>
    <path id="Path_43" data-name="Path 43" d="M108.6,82.635l-8.259-3.508L92.776,83.9l.8-8.921-6.892-5.73,8.743-1.969,3.3-8.34,4.606,7.694,8.942.57-5.886,6.763Z" transform="translate(-40.042 -27.244)" fill="#500130"/>
  </g>
</svg>
