<svg id="Warstwa_2" data-name="Warstwa 2" xmlns="http://www.w3.org/2000/svg" width="127.128" height="86.282" viewBox="0 0 127.128 86.282">
  <g id="Layer_1" data-name="Layer 1">
    <path id="Path_46" data-name="Path 46" d="M111.948,66.611A24.24,24.24,0,0,0,98.756,20.243a24.216,24.216,0,0,1,8.092,32.248A19,19,0,0,0,82.5,48.514,22.3,22.3,0,0,0,59.138,30.385,22.321,22.321,0,0,0,37.906,49.267a18.174,18.174,0,0,0-6.017-1.025A19.074,19.074,0,0,0,12.833,67.291a5.8,5.8,0,0,0,.024.6C7.544,69.341,0,72.447,0,83.286,0,91.9,7.67,98.915,17.048,98.915l.9-.024c5.857-.279,30.062.024,30.069.021v-.4l.129.021.024.373v-.373c3.218.436,10.675.446,28.016.478,0,0,13.018.223,22.476.223,3.577,0,6.652-.031,8.35-.119,8.96-.45,16.406-9.023,15.946-18.359A15.989,15.989,0,0,0,111.948,66.611ZM106.771,94.47c-6.132.3-30.5-.112-30.547-.112-10.808-.021-27.193-.066-28.065-.1l-.052,1.046-.028-1.046s-11.194-.143-20.241-.143c-4.347,0-8.21.035-10.11.129h-.669c-6.823,0-12.38-4.926-12.39-10.975,0-7.217,3.943-9.563,11.236-11.376L17.7,71.44l-.077-2.922A9.127,9.127,0,0,1,17.5,67.28,14.412,14.412,0,0,1,31.9,52.886a14.14,14.14,0,0,1,6.973,1.9l3.535,1.977-.07-4.048A17.587,17.587,0,0,1,59.368,35.032l.945-.01a17.607,17.607,0,0,1,17.846,16.5,14.389,14.389,0,0,1-.049,1.5l-.188,5.955,4.184-4.243a14.332,14.332,0,0,1,21.964,1.764,24.142,24.142,0,0,1-10.93,7.279,23.493,23.493,0,0,1-3.322.8,24.209,24.209,0,0,0,16.567,3.535l-.373,1.917,2.339.408c5.606.983,9.706,5.331,9.96,10.563.289,6.07-4.581,13.119-11.54,13.471Z" transform="translate(0 -12.954)" fill="#500130"/>
    <path id="Path_47" data-name="Path 47" d="M243.563,42.046l3.469-2.189,3.786,1.607L249.8,37.489l2.705-3.1-4.1-.261L246.292,30.6l-1.513,3.821-4.009.913,3.162,2.622Z" transform="translate(-156.831 -19.932)" fill="#500130"/>
    <path id="Path_48" data-name="Path 48" d="M207.96,9.6l2.9-1.841,3.166,1.349-.844-3.336,2.266-2.6-3.437-.223L210.24,0l-1.269,3.207-3.361.76,2.653,2.2Z" transform="translate(-133.928)" fill="#500130"/>
  </g>
</svg>
