<svg id="Warstwa_2" data-name="Warstwa 2" xmlns="http://www.w3.org/2000/svg" width="124.879" height="130.228" viewBox="0 0 124.879 130.228">
  <g id="Layer_1" data-name="Layer 1" transform="translate(0 0)">
    <path id="Path_251" data-name="Path 251" d="M113.033,36.6a16.055,16.055,0,0,0,.084-1.691A19.248,19.248,0,0,0,83.73,18.546a22.953,22.953,0,0,0-45.182.743A18.516,18.516,0,0,0,32.314,18.2,19.283,19.283,0,0,0,13.056,37.452a5.187,5.187,0,0,0,.031.7C7.712,39.624,0,42.73,0,53.736,0,61.9,6.8,68.919,16.058,69.352l2.831-4.365c-.349,0-.7.017-.983.028l-.7.021c-7.014,0-12.739-5.076-12.739-11.31,0-7.422,4.048-9.835,11.533-11.7l1.684-.641.049-1.7-.087-.906a10.281,10.281,0,0,1-.119-1.325A14.792,14.792,0,0,1,32.314,22.684a14.472,14.472,0,0,1,7.171,1.945l3.4,1.907-.073-3.9A18.025,18.025,0,0,1,60.268,4.51l.973-.028A18.037,18.037,0,0,1,79.519,21.373a14.517,14.517,0,0,1-.042,1.555l-.2,5.756,4.048-4.114a14.764,14.764,0,0,1,25.3,10.351,15.236,15.236,0,0,1-.3,2.956l-.457,2.252,2.259.4c5.773,1,9.988,5.477,10.253,10.87s-3.451,11.557-9.117,13.342l1.5,4.163a18.126,18.126,0,0,0,12.09-17.724A16.207,16.207,0,0,0,113.033,36.6Z" transform="translate(0 0.002)" fill="#500130"/>
    <path id="Path_252" data-name="Path 252" d="M83.189,230.012c0,.533-.617.98-1.395.98h0c-.764,0-1.395-.446-1.395-.98V176.236c0-.54.621-.976,1.395-.976h0c.764,0,1.395.436,1.395.976Z" transform="translate(-52.37 -114.159)" fill="#500130"/>
    <path id="Path_253" data-name="Path 253" d="M119.4,253.689c0,.547-.621.983-1.395.983h0c-.767,0-1.395-.436-1.395-.983V199.917c0-.547.617-.987,1.395-.987h0c.757,0,1.395.439,1.395.987Z" transform="translate(-75.956 -129.576)" fill="#500130"/>
    <path id="Path_254" data-name="Path 254" d="M173.935,220.025c0,.54-.617.98-1.37.98h0c-.763,0-1.395-.439-1.395-.98V166.253c0-.54.617-.973,1.395-.973h0c.753,0,1.37.432,1.37.973Z" transform="translate(-111.495 -107.658)" fill="#500130"/>
    <path id="Path_255" data-name="Path 255" d="M217.279,268.439c0,.537-.621.98-1.395.98h0c-.767,0-1.395-.443-1.395-.98V214.663c0-.54.617-.973,1.395-.973h0c.757,0,1.395.432,1.395.973Z" transform="translate(-139.713 -139.191)" fill="#500130"/>
    <path id="Path_256" data-name="Path 256" d="M258.329,220.025c0,.54-.624.98-1.395.98h0c-.767,0-1.395-.439-1.395-.98V166.253c0-.54.621-.973,1.395-.973h0c.757,0,1.395.432,1.395.973Z" transform="translate(-166.451 -107.658)" fill="#500130"/>
  </g>
</svg>
