<svg id="Warstwa_2" data-name="Warstwa 2" xmlns="http://www.w3.org/2000/svg" width="150.233" height="120.238" viewBox="0 0 150.233 120.238">
  <g id="Layer_1" data-name="Layer 1" transform="translate(0 0)">
    <path id="Path_208" data-name="Path 208" d="M125.343,75.442a2.27,2.27,0,1,0,3.413-2.988l-16.877-19.29a2.271,2.271,0,1,0-3.424,2.984Z" transform="translate(-70.281 -33.994)" fill="#500130"/>
    <path id="Path_209" data-name="Path 209" d="M236.38,29.937a2.263,2.263,0,0,0,2.245-2.287l-.181-25.638a2.27,2.27,0,1,0-4.532.028l.181,25.635a2.266,2.266,0,0,0,2.287,2.263Z" transform="translate(-152.361 0.369)" fill="#500130"/>
    <path id="Path_210" data-name="Path 210" d="M359.895,257.148l-22.685-11.934a2.27,2.27,0,0,0-2.116,4.013l22.685,11.937a2.27,2.27,0,0,0,2.116-4.016Z" transform="translate(-217.525 -159.449)" fill="#500130"/>
    <path id="Path_211" data-name="Path 211" d="M372.263,156.311l-25.45,2.974a2.27,2.27,0,1,0,.523,4.508l25.45-2.97a2.271,2.271,0,0,0-.523-4.511Z" transform="translate(-224.563 -101.678)" fill="#500130"/>
    <path id="Path_212" data-name="Path 212" d="M308.661,67.077l15.779-20.2a2.266,2.266,0,1,0-3.57-2.789L305.084,64.305a2.268,2.268,0,1,0,3.577,2.789Z" transform="translate(-198.41 -27.985)" fill="#500130"/>
    <path id="Path_213" data-name="Path 213" d="M115.334,131.53a32.14,32.14,0,0,0-62.851-9.476c.209-.017.411-.049.621-.059l1.077-.024h-.363c-.209,0-.411.042-.621.059a21.012,21.012,0,0,0-9.5,3.138l-24.118-1.973a2.277,2.277,0,0,0-.377,4.532l19.7,1.6a19.7,19.7,0,0,0-4.5,9.688,16.769,16.769,0,0,0-5.282-.854,17.5,17.5,0,0,0-17.487,17.487q0,.188,0,.377C6.774,157.4,0,160.3,0,170.172c0,7.935,7.039,14.391,15.688,14.391l.83-.021c5.285-.272,27.235.017,27.245.017v-.377l.115.017.017.349V184.2c3.047.408,9.9.418,25.4.45,0,0,11.822.2,20.405.2,3.235,0,6.017-.028,7.551-.1a14.889,14.889,0,0,0,10.309-5.055,16.542,16.542,0,0,0,4.347-11.808,14.442,14.442,0,0,0-7.353-11.752c-.146-.087-.307-.157-.453-.241A32.074,32.074,0,0,0,115.334,131.53Zm-8.078,36.582a12.042,12.042,0,0,1-3.138,8.454,10.285,10.285,0,0,1-7.091,3.528c-5.578.279-27.632-.1-27.685-.1-9.793,0-24.652-.056-25.45-.084l-.052,1.046-.021-1.046s-10.194-.122-18.4-.122c-3.929,0-7.408.031-9.141.119h-.6c-6.07,0-11.017-4.372-11.02-9.741,0-6.436,3.368-8.447,10.02-10.089l1.687-.68.108-1.7-.066-.879a8.935,8.935,0,0,1-.112-1.147,12.847,12.847,0,0,1,12.83-12.84,12.673,12.673,0,0,1,6.23,1.687l3.532,1.98-.07-4.051a15.3,15.3,0,0,1,6.457-12.694,2.221,2.221,0,0,0,1.621-1.077,16.947,16.947,0,0,1,7.143-2.033l.844-.021a16.682,16.682,0,0,1,1.97.129,15.674,15.674,0,0,1,14,14.6c0,.282,0,.561-.045,1.363L70.6,148.7l4.184-4.278a12.819,12.819,0,0,1,21.964,8.988,13.077,13.077,0,0,1-.248,2.5.385.385,0,0,0,0,.063l-.464,2.332,2.339.415a11.993,11.993,0,0,1,1.8.464A10.078,10.078,0,0,1,107.256,168.112ZM101.35,152.1a17.459,17.459,0,0,0-26.179-13.8,20.4,20.4,0,0,0-17.083-16.065c-.227-.035-.464-.024-.7-.056a27.458,27.458,0,1,1,43.962,29.937Z" transform="translate(0 -64.611)" fill="#500130"/>
  </g>
</svg>
