<svg id="Warstwa_2" data-name="Warstwa 2" xmlns="http://www.w3.org/2000/svg" width="144.61" height="110.397" viewBox="0 0 144.61 110.397">
  <g id="Layer_1" data-name="Layer 1" transform="translate(0 0)">
    <path id="Path_222" data-name="Path 222" d="M135.362,132.856c.021-.307.024-.607.024-.913a15.664,15.664,0,0,0-23.2-13.736A18.314,18.314,0,0,0,94.154,104l-.966.024A18.313,18.313,0,0,0,76.7,116.178a22.759,22.759,0,0,0-17.571-6.9,22.306,22.306,0,0,0-21.221,18.875,18.156,18.156,0,0,0-6.021-1.018,19.067,19.067,0,0,0-19.049,19.049,5.711,5.711,0,0,0,.021.593C7.534,148.231,0,151.333,0,162.172,0,170.79,7.67,177.8,17.034,177.8h.917c5.843-.293,30.059.024,30.069.024v-.4l.122.021.024.37v-.37c3.218.432,10.675.443,28.016.478,0,0,13.084.22,22.549.22,3.542,0,6.589-.035,8.273-.115a16.259,16.259,0,0,0,11.724-6.1,18.129,18.129,0,0,0,4.225-12.021H124.8c2.845,0,5.285-.028,6.624-.091a13.448,13.448,0,0,0,9.692-5.048,14.869,14.869,0,0,0,3.486-10.086A13.247,13.247,0,0,0,135.362,132.856ZM118.3,159.882a13.408,13.408,0,0,1-3.162,9.064,11.577,11.577,0,0,1-8.367,4.417c-6.146.314-30.505-.1-30.547-.1-10.808-.017-27.193-.052-28.065-.094L48.1,174.21l-.024-1.046s-11.414-.15-20.51-.15c-4.239,0-7.977.031-9.852.122l-.7.021c-6.819,0-12.366-4.926-12.376-10.982,0-7.22,3.94-9.566,11.236-11.365l1.809-.443-.08-2.932a9.762,9.762,0,0,1-.119-1.248,14.405,14.405,0,0,1,14.4-14.388,14.168,14.168,0,0,1,6.973,1.886l3.532,1.98-.066-4.051a17.569,17.569,0,0,1,17.024-17.672l.938-.028a18.129,18.129,0,0,1,11.853,4.358,17.261,17.261,0,0,1,4.368,5.641,16.853,16.853,0,0,1,1.649,6.481c0,.331,0,.642-.049,1.517l-.188,5.948,4.184-4.243A14.374,14.374,0,0,1,106.743,143.7a14.614,14.614,0,0,1-.289,2.869l-.471,2.336,2.346.411a12.2,12.2,0,0,1,8.562,5.871,10.529,10.529,0,0,1,1.395,4.672.083.083,0,0,1,.01.024Zm19.248-8.1a8.845,8.845,0,0,1-6.342,3.361c-1.743.087-5.3.1-9.169.084a16.4,16.4,0,0,0-10.7-9.971c.042-.512.066-1.046.066-1.565a19.067,19.067,0,0,0-19.046-19.049,18.864,18.864,0,0,0-9.859,2.754,21.556,21.556,0,0,0-1.562-4.992c-.164-.37-.394-.7-.575-1.046a13.561,13.561,0,0,1,13.063-12.687l.736-.021a13.593,13.593,0,0,1,13.771,12.708c0,.3,0,.589-.035,1.123l-.349,6.115,4.327-4.375a11,11,0,0,1,18.868,7.722,10.511,10.511,0,0,1-.22,2.182l-.5,2.357,2.378.411a8.784,8.784,0,0,1,7.565,8.018,10.208,10.208,0,0,1-2.416,6.871Z" transform="translate(0 -67.742)" fill="#500130"/>
    <path id="Path_223" data-name="Path 223" d="M72.847,77.128c-.077-.927-1.778-22.835,15.064-33.217,13.837-8.531,28.239-6.108,41.647,7.007l-3.249,3.326c-11.888-11.616-23.989-13.767-35.947-6.373-14.426,8.894-12.9,28.657-12.871,28.86Z" transform="translate(-47.397 -25.346)" fill="#500130"/>
    <path id="Path_224" data-name="Path 224" d="M29.494,55.546c-.132-1.325-2.887-32.593,22.591-48.86,19.9-12.7,44.816-5.672,58.172,7.391L107,17.4C94.928,5.577,72.455-.789,54.6,10.608,31.495,25.359,34.106,54.8,34.124,55.083Z" transform="translate(-19.115 0.001)" fill="#500130"/>
  </g>
</svg>
