<svg id="Warstwa_2" data-name="Warstwa 2" xmlns="http://www.w3.org/2000/svg" width="157.051" height="100.024" viewBox="0 0 157.051 100.024">
  <g id="Layer_1" data-name="Layer 1" transform="translate(0 0)">
    <path id="Path_214" data-name="Path 214" d="M253.276,48.681a1.462,1.462,0,0,0,2.2-1.931L244.581,34.3a1.465,1.465,0,1,0-2.207,1.928Z" transform="translate(-157.643 -22.019)" fill="#500130"/>
    <path id="Path_215" data-name="Path 215" d="M324.927,19.474A1.464,1.464,0,0,0,326.377,18l-.119-16.546a1.464,1.464,0,1,0-2.928.024l.118,16.539a1.464,1.464,0,0,0,1.478,1.454Z" transform="translate(-210.611 -0.005)" fill="#500130"/>
    <path id="Path_216" data-name="Path 216" d="M404.547,165.9l-14.642-7.7a1.462,1.462,0,1,0-1.363,2.587l14.642,7.694a1.475,1.475,0,0,0,1.984-.624,1.447,1.447,0,0,0-.621-1.956Z" transform="translate(-252.579 -102.935)" fill="#500130"/>
    <path id="Path_217" data-name="Path 217" d="M412.664,100.84l-16.427,1.921a1.466,1.466,0,0,0,.349,2.911l16.431-1.917a1.468,1.468,0,1,0-.349-2.915Z" transform="translate(-257.259 -65.679)" fill="#500130"/>
    <path id="Path_218" data-name="Path 218" d="M347.61,186.388a1.465,1.465,0,1,0-2.765.969l5.5,15.608a1.461,1.461,0,1,0,2.754-.976Z" transform="translate(-224.572 -120.771)" fill="#500130"/>
    <path id="Path_219" data-name="Path 219" d="M371.558,43.322l10.19-13.039a1.47,1.47,0,0,0-2.325-1.8L369.253,41.54a1.461,1.461,0,1,0,2.3,1.8Z" transform="translate(-240.323 -18.184)" fill="#500130"/>
    <path id="Path_220" data-name="Path 220" d="M287.4,61.69a21.458,21.458,0,0,0-21.225,25.255,18.924,18.924,0,0,1,4.975.927,17,17,0,1,1,11.909,11.71,18.718,18.718,0,0,1,1.028,4.961A21.556,21.556,0,1,0,287.4,61.69Z" transform="translate(-173.163 -40.184)" fill="#500130"/>
    <path id="Path_221" data-name="Path 221" d="M110.944,125.943q.063-.774.063-1.558c0-.453-.038-.892-.07-1.339a18.96,18.96,0,0,0-17.913-17.6c-.349,0-.666-.052-1-.052a18.826,18.826,0,0,0-9.817,2.737,21.346,21.346,0,0,0-3.451-8.308l10.232.833a1.464,1.464,0,1,0,.244-2.918l-13.1-1.084a22.6,22.6,0,0,0-17.2-6.572,22.242,22.242,0,0,0-21.158,18.8,18.129,18.129,0,0,0-5.986-1.015A19.007,19.007,0,0,0,12.794,126.86a5.546,5.546,0,0,0,.021.586C7.516,128.9,0,131.978.01,142.786c0,8.608,7.631,15.58,16.989,15.58l.9-.021c5.822-.289,29.947.021,29.947.017v-.4l.126.017v0c3.207.436,10.637.45,27.915.485,0,0,13.007.216,22.431.216h0c3.539,0,6.582-.028,8.263-.115a16.174,16.174,0,0,0,11.69-6.084,18.038,18.038,0,0,0,4.211-12.2A15.919,15.919,0,0,0,110.944,125.943Zm3.762,23.578a11.612,11.612,0,0,1-8.336,4.407c-1.639.08-4.591.108-8.018.108h0c-9.392,0-22.347-.22-22.385-.22-10.773-.021-27.113-.063-27.964-.1l-.059,1.046-.017-1.046s-11.156-.143-20.168-.143c-4.33,0-8.172.031-10.075.129l-.669.017c-6.791,0-12.331-4.905-12.335-10.94,0-7.178,3.922-9.511,11.188-11.306l1.642-.7.153-1.652-.08-1.015a9.229,9.229,0,0,1-.119-1.248,14.346,14.346,0,0,1,14.329-14.332,14.088,14.088,0,0,1,6.973,1.886L42.3,116.4l-.108-4.051a17.5,17.5,0,0,1,16.957-17.6l.941-.024a18.076,18.076,0,0,1,11.33,3.95,1.433,1.433,0,0,0,.6.509,16.968,16.968,0,0,1,5.84,11.948c0,.331,0,.655-.042,1.5l-.22,6,4.208-4.285a14.311,14.311,0,0,1,24.247,12.892l-.474,2.343,2.357.415c5.578.983,9.664,5.31,9.922,10.518A13.311,13.311,0,0,1,114.706,149.521Z" transform="translate(-0.01 -58.66)" fill="#500130"/>
  </g>
</svg>
