<svg id="Warstwa_2" data-name="Warstwa 2" xmlns="http://www.w3.org/2000/svg" width="125.263" height="82.854" viewBox="0 0 125.263 82.854">
  <g id="Layer_1" data-name="Layer 1" transform="translate(0 0)">
    <path id="Path_80" data-name="Path 80" d="M119.339,40.062A24.233,24.233,0,0,0,96.846.318,24.122,24.122,0,0,1,108,21.849a19.175,19.175,0,0,0-24.258-3.336,22.962,22.962,0,0,0-45.2.743,18.638,18.638,0,0,0-6.23-1.081A19.279,19.279,0,0,0,13.056,37.429a5.265,5.265,0,0,0,.031.7C7.708,39.594,0,42.7,0,53.7c0,7.977,6.495,14.845,15.413,15.57v.077c.028,0,.108-.021.223-.042a2.357,2.357,0,0,1,.418.042l.063-.1a28.843,28.843,0,0,1,20.461,6.659c5.874,4.849,12.62,6.146,19.133,6.718,1.395.115,2.726.181,4.016.181,6.275,0,11.306-1.433,14.074-4.075,7.876-7.534,17.02-4.623,25.08-2.067,6.509,2.067,13.23,4.184,15.622-2.611a10,10,0,0,0,.289-6.035,18.136,18.136,0,0,0,10.068-16.856A15.619,15.619,0,0,0,119.339,40.062Zm-6.9,24.16a6.831,6.831,0,0,0-7.136-1.395,5.871,5.871,0,0,0-3.94,5.609,4.753,4.753,0,0,0,2.733,4.445,2.956,2.956,0,0,0,3.27-.969l-2.27-1.869a2.079,2.079,0,0,1-.753-1.673c-.031-.861.31-2.05,2.113-2.806a3.879,3.879,0,0,1,4.1.941c1.611,1.52,2.033,3.957,1.126,6.537-1.307,3.73-4.3,3.159-11.9.76-7.977-2.545-18.906-6-28.051,2.747-2.674,2.559-8.559,3.72-15.765,3.071-6.024-.523-12.307-1.614-17.459-6C31.861,67.948,25.366,66.491,20.96,66.3a22.155,22.155,0,0,1,15.451,1.827c7.241,3.661,15.971,7.147,23.18,7.147,4.089,0,7.7-1.126,10.253-3.95,5.655-6.234,12.432-5.54,18.359-4.94,5.3.554,10.79,1.1,12.666-4.881a7.764,7.764,0,0,0-1.952-8.367,8.792,8.792,0,0,0-8.887-1.684c-3.173,1.328-3.462,3.486-3.437,4.365a4.687,4.687,0,0,0,3.138,4.121,3.661,3.661,0,0,0,4.121-1.028L91.6,56.953a.7.7,0,0,1-.858.167,1.764,1.764,0,0,1-1.164-1.395c0-.777,1.119-1.328,1.614-1.53a5.75,5.75,0,0,1,5.714,1.13c.98.9,1.97,2.538,1.112,5.261-1.091,3.486-3.87,3.378-9.511,2.789-6-.61-14.21-1.45-20.872,5.885-6.115,6.749-21.336.488-29.871-3.835A25.536,25.536,0,0,0,15.8,64.835a13.541,13.541,0,0,1-6.091-2.092c3.608-2.263,14.541-7.837,26.569-1.248,7.251,3.967,13.426,5.324,18.477,5.324a24.145,24.145,0,0,0,14.709-4.7c3.7-2.813,3.859-7.858,2.137-11.174-1.5-2.88-4.881-5.386-9.842-3.814a5.229,5.229,0,0,0-3.626,6.321c.6,2.44,2.974,4.612,6.945,3.915l-.512-2.949c-2.2.377-3.27-.617-3.532-1.687a2.263,2.263,0,0,1,1.625-2.747c3.919-1.262,5.711,1.224,6.275,2.336,1.178,2.273,1.015,5.662-1.293,7.426-3.566,2.712-13.621,8.074-29.933-.875-14.266-7.806-27.193-.279-30.359,1.851a10.459,10.459,0,0,1-2.862-7.042c0-7.429,4.048-9.842,11.533-11.7l1.691-.641.049-1.694-.087-.92a9.59,9.59,0,0,1-.122-1.314A14.792,14.792,0,0,1,32.318,22.655,14.5,14.5,0,0,1,39.489,24.6l3.392,1.907-.066-3.9A18.02,18.02,0,0,1,60.247,4.477l.969-.028a18.043,18.043,0,0,1,18.293,16.9,14.968,14.968,0,0,1-.049,1.541l-.2,5.759,4.062-4.1A14.74,14.74,0,0,1,106.907,28,24.055,24.055,0,0,1,87.886,44.671a24.191,24.191,0,0,0,28.208-1.492,11.243,11.243,0,0,1,4.3,8.186,13.929,13.929,0,0,1-7.952,12.847Z" transform="translate(0 0.047)" fill="#500130"/>
  </g>
</svg>
