<svg id="Warstwa_2" data-name="Warstwa 2" xmlns="http://www.w3.org/2000/svg" width="146.533" height="147.679" viewBox="0 0 146.533 147.679">
  <g id="Layer_1" data-name="Layer 1" transform="translate(0 0)">
    <path id="Path_112" data-name="Path 112" d="M253.828,41.191a1.227,1.227,0,0,0,1.743.119,1.245,1.245,0,0,0,.112-1.743l-9.2-10.518a1.238,1.238,0,0,0-1.858,1.632Z" transform="translate(-159.161 -18.666)" fill="#500130"/>
    <path id="Path_113" data-name="Path 113" d="M314.26,16.432a1.234,1.234,0,0,0,1.224-1.245l-.108-13.97a1.238,1.238,0,0,0-2.475,0l.1,13.973a1.231,1.231,0,0,0,1.259,1.241Z" transform="translate(-203.814 0.02)" fill="#500130"/>
    <path id="Path_114" data-name="Path 114" d="M381.5,140.116l-12.362-6.5a1.248,1.248,0,0,0-1.68.519,1.231,1.231,0,0,0,.526,1.666l12.359,6.509a1.241,1.241,0,0,0,1.157-2.193Z" transform="translate(-239.258 -86.932)" fill="#500130"/>
    <path id="Path_115" data-name="Path 115" d="M388.293,85.184l-13.868,1.621a1.238,1.238,0,1,0,.279,2.458l13.879-1.618a1.239,1.239,0,1,0-.289-2.461Z" transform="translate(-243.144 -55.474)" fill="#500130"/>
    <path id="Path_116" data-name="Path 116" d="M331.857,156.695a1.22,1.22,0,0,0-.746,1.572l4.64,13.182a1.236,1.236,0,1,0,2.329-.826l-4.644-13.171a1.231,1.231,0,0,0-1.579-.757Z" transform="translate(-215.628 -102.012)" fill="#500130"/>
    <path id="Path_117" data-name="Path 117" d="M353.665,36.546l8.6-11.01a1.238,1.238,0,1,0-1.952-1.52l-8.6,11.017a1.234,1.234,0,0,0,.206,1.743,1.248,1.248,0,0,0,1.743-.23Z" transform="translate(-228.922 -15.307)" fill="#500130"/>
    <path id="Path_118" data-name="Path 118" d="M113.029,100.661c.056-.568.08-1.13.08-1.691a19.1,19.1,0,0,0-2.967-10.218h.241a17.846,17.846,0,1,0-15.451-8.995c-.349,0-.718-.052-1.081-.052a19.042,19.042,0,0,0-10.11,2.883,22.169,22.169,0,0,0-8.207-13.666l13.52,1.105a1.238,1.238,0,1,0,.2-2.468L75.3,66.426a1.245,1.245,0,0,0-1.328,1.144.868.868,0,0,0,.031.272A22.964,22.964,0,0,0,60.044,64.08,22.583,22.583,0,0,0,38.531,83.331,18.537,18.537,0,0,0,32.3,82.25,19.283,19.283,0,0,0,13.053,101.5a5.239,5.239,0,0,0,.031.7C7.7,103.673,0,106.78,0,117.779c0,8.172,6.8,15.19,16.054,15.622l2.831-4.361c-.349,0-.722.021-.98.031h-.7c-7.018,0-12.728-5.073-12.739-11.3,0-7.433,4.048-9.838,11.533-11.7l1.687-.641.049-1.7-.084-.91a9.762,9.762,0,0,1-.129-1.318A14.8,14.8,0,0,1,32.3,86.723a14.559,14.559,0,0,1,7.175,1.945l3.406,1.9-.07-3.9A18.018,18.018,0,0,1,60.264,68.545l.969-.021a18.046,18.046,0,0,1,18.293,16.9,13.942,13.942,0,0,1-.049,1.537l-.2,5.763,4.048-4.1a14.73,14.73,0,0,1,17.466-2.691c.4.254.8.5,1.217.729a14.761,14.761,0,0,1,6.624,12.307,15.256,15.256,0,0,1-.3,2.953l-.464,2.249,2.27.4c5.766,1.011,9.978,5.48,10.25,10.87S116.93,127,111.272,128.782l1.492,4.184a18.124,18.124,0,0,0,12.094-17.728A16.19,16.19,0,0,0,113.029,100.661Zm-17.341-29.7a14.7,14.7,0,1,1,11.78,14.4,19.265,19.265,0,0,0-8.259-4.881,14.615,14.615,0,0,1-3.521-9.521Z" transform="translate(0 -34.554)" fill="#500130"/>
    <path id="Path_119" data-name="Path 119" d="M65.743,289.44l-.913.927.924.9.91-.9Z" transform="translate(-42.228 -188.526)" fill="#500130"/>
    <rect id="Rectangle_28" data-name="Rectangle 28" width="1.293" height="1.286" transform="translate(25.269 95.755)" fill="#500130"/>
    <path id="Path_120" data-name="Path 120" d="M78.064,282.7l.265-1.694,1.743,1.743.035,2.151.631-1.9,2.019-.75H80.606l-1.743-1.68,1.691-.492L79.546,278.8h2.472l1.524,1.625-.833-1.98.833-1.883-1.524,1.579H79.546l.889-1.395-1.59-.3,1.743-1.775h2.151l-1.97-.715-.746-1.973v2.186l-1.712,1.788-.248-1.687-1.426.969v-2.413L78.2,271.2l-1.876.913-1.945-.854,1.558,1.551v2.412l-1.454-.872-.237,1.6L72.5,274.163v-2.186l-.676,1.973-2.036.777h2.189l1.743,1.712-1.8.394,1.1,1.29H70.551L69,276.544l.75,1.942L69,280.407l1.555-1.607H73.03l-1.1,1.44,1.8.286-1.743,1.743H69.788l2.036.7.662,1.938.028-2.151,1.691-1.684.3,1.743,1.454-1.081v2.482L74.4,285.731l1.9-.833,1.869.833-1.52-1.516v-2.486Zm.038-2.848L77.092,278.8h1.527Zm.056-2.716.349.983H77.092Zm-1.489-.927,1.018.429-1.018.99Zm0,3.071,1.018.987-1.018.5Zm-2.284-2.144,1.046.983h-1.4Zm.07,2.716-.429-1.056h1.419Zm1.489.878-.966-.4.966-1.046Zm0-3.1-.966-.99.966-.429Z" transform="translate(-44.945 -176.645)" fill="#500130"/>
    <path id="Path_121" data-name="Path 121" d="M111.067,290.27l-.913-.91-.924.91.924.913Z" transform="translate(-71.149 -188.474)" fill="#500130"/>
    <rect id="Rectangle_29" data-name="Rectangle 29" width="1.293" height="1.283" transform="translate(25.335 106.538)" fill="#500130"/>
    <path id="Path_122" data-name="Path 122" d="M87.17,312.463l.92.91.924-.91-.924-.913Z" transform="translate(-56.78 -202.928)" fill="#500130"/>
    <path id="Path_123" data-name="Path 123" d="M88,266.94l-.917.913.917.913.913-.913Z" transform="translate(-56.721 -173.87)" fill="#500130"/>
    <rect id="Rectangle_30" data-name="Rectangle 30" width="1.304" height="1.283" transform="translate(35.999 106.538)" fill="#500130"/>
    <rect id="Rectangle_31" data-name="Rectangle 31" width="1.293" height="1.286" transform="translate(36.101 95.755)" fill="#500130"/>
    <rect id="Rectangle_32" data-name="Rectangle 32" width="1.663" height="1.68" transform="translate(77.302 85.278)" fill="#500130"/>
    <path id="Path_124" data-name="Path 124" d="M224.19,258.909l2.461-1.084,2.44,1.084-1.973-1.973v-3.214l1.855,1.259.349-2.193,2.263,2.259.049,2.789.816-2.461,2.615-.976h-2.789l-2.3-2.182,2.182-.648-1.279-1.677h3.207L236.06,252l-1.077-2.58,1.077-2.44-1.973,2.05H230.88l1.154-1.806-2.057-.38,2.27-2.308h2.789l-2.559-.91-.966-2.569v2.831l-2.217,2.315-.349-2.2-1.855,1.259v-3.138l2.026-2.109-2.413,1.2-2.524-1.109,2.022,2.015v3.138l-1.879-1.133-.314,2.071-2.273-2.315v-2.831l-.885,2.555-2.632,1.018h2.834l2.27,2.221-2.329.509,1.433,1.677h-3.2l-2.019-2.05.969,2.51-.969,2.5,2.019-2.113h3.211l-1.433,1.869,2.329.366-2.27,2.266h-2.834l2.632.91.854,2.528.031-2.789,2.189-2.189.4,2.263,1.879-1.395v3.214Zm4.8-7.625L227.7,249.89h1.991Zm.08-3.514.474,1.283H227.7Zm-1.924-1.206,1.318.551-1.318,1.286Zm0,3.985,1.318,1.286-1.318.641Zm-.945-3.985V248.4l-1.245-1.286Zm-2.022,1.206,1.395,1.283h-1.851Zm.091,3.514-.565-1.395h1.851Zm.7.634,1.245-1.37v1.886Z" transform="translate(-141.484 -156.335)" fill="#500130"/>
    <path id="Path_125" data-name="Path 125" d="M241.828,234.62l-1.178,1.185,1.178,1.185,1.2-1.185Z" transform="translate(-156.752 -152.818)" fill="#500130"/>
    <path id="Path_126" data-name="Path 126" d="M214.177,265.009l-1.192-1.2-1.175,1.2L213,266.177Z" transform="translate(-137.967 -171.831)" fill="#500130"/>
    <rect id="Rectangle_33" data-name="Rectangle 33" width="1.684" height="1.663" transform="translate(77.375 99.265)" fill="#500130"/>
    <rect id="Rectangle_34" data-name="Rectangle 34" width="1.68" height="1.68" transform="translate(91.337 85.278)" fill="#500130"/>
    <path id="Path_127" data-name="Path 127" d="M243.151,293.652l-1.189-1.192-1.192,1.192,1.192,1.175Z" transform="translate(-156.831 -190.493)" fill="#500130"/>
    <rect id="Rectangle_35" data-name="Rectangle 35" width="1.68" height="1.663" transform="translate(91.215 99.265)" fill="#500130"/>
    <path id="Path_128" data-name="Path 128" d="M270.565,263.7l-1.185,1.178,1.185,1.185,1.192-1.185Z" transform="translate(-175.466 -171.759)" fill="#500130"/>
    <path id="Path_129" data-name="Path 129" d="M97.308,388.14l-1.178,1.2,1.192,1.168,1.182-1.168Z" transform="translate(-62.616 -252.816)" fill="#500130"/>
    <path id="Path_130" data-name="Path 130" d="M153.71,389.208l1.185,1.178,1.192-1.178L154.9,388.03Z" transform="translate(-100.122 -252.744)" fill="#500130"/>
    <rect id="Rectangle_36" data-name="Rectangle 36" width="1.684" height="1.659" transform="translate(37.052 142.614)" fill="#500130"/>
    <path id="Path_131" data-name="Path 131" d="M125.09,417.989l1.192,1.175,1.192-1.175-1.192-1.189Z" transform="translate(-81.48 -271.484)" fill="#500130"/>
    <rect id="Rectangle_37" data-name="Rectangle 37" width="1.68" height="1.68" transform="translate(51.011 128.623)" fill="#500130"/>
    <path id="Path_132" data-name="Path 132" d="M126.159,358.95l-1.189,1.182,1.189,1.185,1.185-1.185Z" transform="translate(-81.402 -233.803)" fill="#500130"/>
    <path id="Path_133" data-name="Path 133" d="M120.361,376.408l-1.074-2.576,1.074-2.44-1.973,2.05H115.18l1.161-1.8-2.06-.366,2.266-2.3h2.789l-2.559-.927-.969-2.559v2.834l-2.214,2.315-.349-2.2-1.848,1.262v-3.138l2.022-2.092-2.413,1.2-2.517-1.109,2.019,2.012V369.7l-1.862-1.151-.31,2.071-2.27-2.315v-2.834l-.906,2.559-2.632,1.018h2.827l2.266,2.214-2.325.512,1.429,1.677h-3.207L101.5,371.4l.969,2.507-.969,2.5,2.019-2.113h3.207l-1.429,1.876,2.325.349-2.266,2.266h-2.827l2.632.924.847,2.528.035-2.789,2.182-2.182.4,2.259,1.883-1.395v3.218l-2.019,1.97,2.458-1.081,2.419,1.081-1.97-1.97V378.13l1.848,1.262.349-2.2,2.263,2.259.049,2.789.819-2.465,2.611-.973h-2.789l-2.266-2.179,2.182-.641-1.283-1.684h3.207Zm-11.853-4.236,1.367,1.283h-1.855Zm.084,3.514-.561-1.395h1.844Zm1.935,1.15-1.245-.512,1.245-1.374Zm0-4.037-1.245-1.279,1.245-.551Zm2.859-.628.478,1.283h-1.848Zm-1.921-1.2,1.318.551-1.318,1.279Zm0,5.909V374.95l1.318,1.283Zm1.841-1.192-1.29-1.395h1.973Z" transform="translate(-66.114 -237.392)" fill="#500130"/>
    <rect id="Rectangle_38" data-name="Rectangle 38" width="1.684" height="1.659" transform="translate(50.886 142.614)" fill="#500130"/>
    <rect id="Rectangle_39" data-name="Rectangle 39" width="1.67" height="1.68" transform="translate(36.969 128.623)" fill="#500130"/>
    <path id="Path_134" data-name="Path 134" d="M196.136,314.06l-.826.823.826.826.826-.826Z" transform="translate(-127.219 -204.562)" fill="#500130"/>
    <rect id="Rectangle_40" data-name="Rectangle 40" width="1.171" height="1.164" transform="translate(73.261 111.917)" fill="#500130"/>
    <rect id="Rectangle_41" data-name="Rectangle 41" width="1.171" height="1.161" transform="translate(73.174 121.63)" fill="#500130"/>
    <path id="Path_135" data-name="Path 135" d="M176.083,334.33l-.823.833.833.805.816-.805Z" transform="translate(-114.159 -217.766)" fill="#500130"/>
    <rect id="Rectangle_42" data-name="Rectangle 42" width="1.175" height="1.161" transform="translate(63.559 121.63)" fill="#500130"/>
    <path id="Path_136" data-name="Path 136" d="M215.27,335.086l.826.826.833-.826-.833-.816Z" transform="translate(-140.221 -217.727)" fill="#500130"/>
    <path id="Path_137" data-name="Path 137" d="M195.41,355.063l.823.819.826-.819-.826-.823Z" transform="translate(-127.284 -230.735)" fill="#500130"/>
    <rect id="Rectangle_43" data-name="Rectangle 43" width="1.161" height="1.164" transform="translate(63.506 111.917)" fill="#500130"/>
    <path id="Path_138" data-name="Path 138" d="M192.1,326.188l-.746-1.8.746-1.684-1.37,1.426H188.5l.805-1.252-1.429-.272,1.583-1.6H191.4l-1.782-.648-.673-1.768v1.97l-1.534,1.607-.241-1.53-1.286.872v-2.168l1.395-1.464-1.67.837-1.743-.77,1.395,1.395v2.168l-1.3-.8-.213,1.447-1.579-1.607v-1.97l-.614,1.781-1.827.7h1.966l1.576,1.541-1.621.349,1,1.168h-2.245L179,322.691l.676,1.743L179,326.177l1.395-1.468h2.231l-1,1.29,1.621.261-1.576,1.569h-1.966l1.827.631.589,1.761.024-1.935,1.52-1.52.272,1.569,1.307-.976V329.6l-1.395,1.363,1.708-.743,1.687.743-1.374-1.363V327.37l1.286.879.241-1.52,1.562,1.569.035,1.935.568-1.712,1.823-.68h-1.931l-1.583-1.51,1.524-.446-.9-1.164h2.231Zm-8.245-2.946.959.889h-1.286Zm.066,2.44-.394-.962h1.29Zm1.335.795-.868-.349.868-.952Zm0-2.789-.868-.885.868-.38Zm1.994-.432.328.889H186.3Zm-1.335-.837.91.38-.91.889Zm0,4.11v-1.346l.91.9Zm1.279-.833-.9-.962h1.374Z" transform="translate(-116.595 -207.051)" fill="#500130"/>
    <rect id="Rectangle_44" data-name="Rectangle 44" width="0.826" height="0.816" transform="translate(52.054 99.276)" fill="#500130"/>
    <rect id="Rectangle_45" data-name="Rectangle 45" width="0.823" height="0.816" transform="translate(58.821 99.276)" fill="#500130"/>
    <path id="Path_139" data-name="Path 139" d="M173.082,274.49l-.582.572.582.575.582-.575Z" transform="translate(-112.361 -178.788)" fill="#500130"/>
    <path id="Path_140" data-name="Path 140" d="M159.039,260.26l-.579.575.579.582.582-.582Z" transform="translate(-103.216 -169.519)" fill="#500130"/>
    <rect id="Rectangle_46" data-name="Rectangle 46" width="0.809" height="0.819" transform="translate(52.019 92.443)" fill="#500130"/>
    <path id="Path_141" data-name="Path 141" d="M158.52,289.119l.582.579.579-.579-.579-.579Z" transform="translate(-103.255 -187.94)" fill="#500130"/>
    <rect id="Rectangle_47" data-name="Rectangle 47" width="0.819" height="0.819" transform="translate(58.883 92.443)" fill="#500130"/>
    <path id="Path_142" data-name="Path 142" d="M156.214,268.76l-.526-1.262.526-1.185-.966,1H153.68l.568-.882-1.011-.188,1.112-1.13h1.367l-1.255-.439-.467-1.241v1.395l-1.067,1.1-.167-1.077-.9.617v-1.527l.983-1.046-1.175.593-1.234-.544.987.987v1.527l-.931-.54-.153,1.011-1.116-1.133v-1.395l-.432,1.272-1.286.5h1.395l1.112,1.084-1.144.247.7.823h-1.576L147,266.313l.478,1.224L147,268.76l.983-1.046h1.576l-.7.91,1.144.185-1.112,1.109H147.5l1.286.439.418,1.238v-1.363l1.07-1.067.2,1.1.917-.7v1.579l-.987.955,1.2-.526,1.182.526-.959-.955v-1.579l.9.621.167-1.081,1.1,1.109.024,1.363.4-1.206,1.283-.471h-1.367l-1.1-1.042,1.074-.317-.631-.823h1.569Zm-5.8-2.074.666.631h-.9Zm.042,1.722-.275-.68h.9Zm.945.561-.61-.251.61-.666Zm0-1.973-.61-.628.61-.268Zm1.395-.31.237.631h-.906Zm-.938-.586.638.268-.638.628Zm0,2.89v-.938l.638.624Zm.9-.582-.635-.68h.969Z" transform="translate(-95.752 -171.238)" fill="#500130"/>
    <path id="Path_143" data-name="Path 143" d="M144.919,274.53l-.579.582.586.572.575-.572Z" transform="translate(-94.019 -178.814)" fill="#500130"/>
    <path id="Path_144" data-name="Path 144" d="M260.19,359l.659.652.669-.652-.669-.666Z" transform="translate(-169.48 -233.399)" fill="#500130"/>
    <rect id="Rectangle_48" data-name="Rectangle 48" width="0.938" height="0.927" transform="translate(87.042 123.425)" fill="#500130"/>
    <path id="Path_145" data-name="Path 145" d="M257.529,335.75l-.6-1.44.6-1.356-1.116,1.144h-1.788l.645-1-1.15-.216,1.266-1.293h1.558l-1.426-.516-.54-1.422v1.572l-1.224,1.3-.192-1.238-1.046.7v-1.743l1.13-1.182-1.332.676-1.395-.621,1.123,1.126v1.743L251,331.354l-.167,1.161-1.272-1.3v-1.572l-.492,1.422-1.468.565h1.579l1.266,1.245-1.3.286.8.931h-1.788L247,332.954l.533,1.395L247,335.743l1.123-1.175h1.788l-.8,1.046,1.3.209-1.266,1.255h-1.579l1.468.516.471,1.412.021-1.555,1.224-1.22.216,1.259,1.046-.784v1.8l-1.123,1.1,1.374-.607,1.342.607-1.095-1.1v-1.8l1.046.7.192-1.234,1.262,1.272.031,1.555.453-1.395,1.457-.547H255.4l-1.266-1.213,1.22-.349-.7-.934h1.757Zm-6.624-2.371.764.718h-1.046Zm.049,1.97-.321-.774h1.046Zm1.074.641-.7-.286.7-.77Zm0-2.252-.7-.722.7-.307Zm1.593-.349.272.718h-1.046Zm-1.067-.669.736.307-.736.722Zm0,3.3v-1.077l.736.718Zm1.046-.662-.725-.774h1.1Z" transform="translate(-160.889 -214.333)" fill="#500130"/>
    <rect id="Rectangle_49" data-name="Rectangle 49" width="0.941" height="0.927" transform="translate(94.764 123.425)" fill="#500130"/>
    <path id="Path_146" data-name="Path 146" d="M276.14,342.932l.662.659.666-.659-.666-.662Z" transform="translate(-179.87 -222.938)" fill="#500130"/>
    <path id="Path_147" data-name="Path 147" d="M260.752,327.361l.669-.662-.669-.659-.662.659Z" transform="translate(-169.415 -212.366)" fill="#500130"/>
    <path id="Path_148" data-name="Path 148" d="M244.662,342.33,244,343l.669.652.655-.652Z" transform="translate(-158.934 -222.977)" fill="#500130"/>
    <rect id="Rectangle_50" data-name="Rectangle 50" width="0.938" height="0.934" transform="translate(94.834 115.616)" fill="#500130"/>
    <rect id="Rectangle_51" data-name="Rectangle 51" width="0.927" height="0.934" transform="translate(87 115.616)" fill="#500130"/>
  </g>
</svg>
