<svg id="Warstwa_2" data-name="Warstwa 2" xmlns="http://www.w3.org/2000/svg" width="124.882" height="82.814" viewBox="0 0 124.882 82.814">
  <g id="Layer_1" data-name="Layer 1" transform="translate(0 0)">
    <path id="Path_206" data-name="Path 206" d="M124.862,51.174a16.21,16.21,0,0,0-11.829-14.559c.056-.568.08-1.13.08-1.694A19.283,19.283,0,0,0,93.854,15.666a19.025,19.025,0,0,0-10.11,2.887,22.958,22.958,0,0,0-45.193.732A18.561,18.561,0,0,0,32.318,18.2,19.286,19.286,0,0,0,13.053,37.459a6.836,6.836,0,0,0,.038.7C7.7,39.62,0,42.734,0,53.729,0,61.706,6.495,68.567,15.416,69.3v.059l.23-.038c.136,0,.268.031.408.038l.063-.094A28.818,28.818,0,0,1,36.575,75.92c5.878,4.846,12.624,6.143,19.136,6.711,1.395.126,2.723.181,4.023.181,6.275,0,11.3-1.429,14.067-4.075,7.876-7.527,17.017-4.616,25.077-2.06,6.512,2.06,13.248,4.2,15.622-2.615a9.964,9.964,0,0,0,.293-6.031A18.143,18.143,0,0,0,124.862,51.174ZM112.429,64.241a6.811,6.811,0,0,0-7.126-1.395,5.882,5.882,0,0,0-3.946,5.613,4.77,4.77,0,0,0,2.737,4.445,2.949,2.949,0,0,0,3.284-.983L105.1,70.073a2.06,2.06,0,0,1-.757-1.673c-.031-.868.3-2.053,2.113-2.813a3.909,3.909,0,0,1,4.1.945c1.614,1.524,2.036,3.964,1.13,6.537-1.311,3.727-4.306,3.162-11.9.753-7.977-2.535-18.9-6-28.054,2.754-2.667,2.555-8.555,3.723-15.762,3.078-6.024-.523-12.307-1.618-17.459-6.01-6.662-5.672-13.157-7.126-17.564-7.321a22.2,22.2,0,0,1,15.465,1.827c7.238,3.671,15.971,7.129,23.17,7.129,4.1,0,7.7-1.116,10.257-3.943,5.658-6.22,12.415-5.529,18.362-4.923,5.3.547,10.808,1.1,12.673-4.881a7.77,7.77,0,0,0-1.959-8.367,8.788,8.788,0,0,0-8.887-1.684c-3.169,1.328-3.455,3.486-3.441,4.368a4.68,4.68,0,0,0,3.138,4.117,3.664,3.664,0,0,0,4.117-1.025l-2.259-1.956c-.1.108-.3.349-.858.164a1.75,1.75,0,0,1-1.154-1.395c-.028-.763,1.112-1.321,1.6-1.527a5.768,5.768,0,0,1,5.718,1.133c.983.9,1.97,2.535,1.116,5.254C96.919,64.122,94.137,64,88.493,63.4c-6-.61-14.21-1.454-20.869,5.888-6.115,6.742-21.336.485-29.871-3.835a25.546,25.546,0,0,0-21.988-.582,13.576,13.576,0,0,1-6.08-2.092c3.6-2.263,14.541-7.837,26.573-1.252,7.251,3.974,13.422,5.324,18.477,5.324a24.148,24.148,0,0,0,14.709-4.7c3.7-2.813,3.856-7.858,2.134-11.174-1.5-2.88-4.863-5.383-9.838-3.814A5.229,5.229,0,0,0,58.1,53.482c.607,2.44,2.988,4.616,6.973,3.912l-.519-2.939c-2.193.373-3.274-.621-3.532-1.684a2.27,2.27,0,0,1,1.632-2.754c3.915-1.259,5.7,1.22,6.275,2.339,1.182,2.27,1.015,5.665-1.293,7.422-3.566,2.712-13.621,8.071-29.933-.868C23.442,51.1,10.511,58.624,7.346,60.758a10.459,10.459,0,0,1-2.862-7.046c0-7.429,4.051-9.838,11.529-11.7l1.687-.641.049-1.7-.077-.913a9.124,9.124,0,0,1-.129-1.314A14.792,14.792,0,0,1,32.318,22.684a14.479,14.479,0,0,1,7.164,1.942l3.4,1.907-.066-3.9A18.026,18.026,0,0,1,60.268,4.5l.966-.028a18.038,18.038,0,0,1,18.289,16.9c.021.349,0,.673-.038,1.541l-.206,5.759,4.044-4.1a14.761,14.761,0,0,1,25.007,13.3l-.453,2.252,2.263.4c5.773,1.008,9.981,5.48,10.25,10.87a13.929,13.929,0,0,1-7.959,12.847Z" transform="translate(0 0.002)" fill="#500130"/>
  </g>
</svg>
