<svg id="Warstwa_2" data-name="Warstwa 2" xmlns="http://www.w3.org/2000/svg" width="124.876" height="142.367" viewBox="0 0 124.876 142.367">
  <g id="Layer_1" data-name="Layer 1" transform="translate(0 0)">
    <path id="Path_157" data-name="Path 157" d="M113.036,36.6c.052-.561.077-1.126.077-1.687a19.279,19.279,0,0,0-19.262-19.23,19.035,19.035,0,0,0-10.11,2.88,22.961,22.961,0,0,0-45.2.722A18.418,18.418,0,0,0,32.318,18.2,19.279,19.279,0,0,0,13.06,37.459c0,.23,0,.457.021.7C7.7,39.624,0,42.73,0,53.733,0,61.9,6.8,68.919,16.054,69.355l2.834-4.372a9.546,9.546,0,0,0-.98.031l-.7.021c-7.011,0-12.728-5.076-12.735-11.31,0-7.426,4.048-9.838,11.533-11.7l1.691-.638.049-1.7-.087-.913a9.214,9.214,0,0,1-.122-1.318A14.789,14.789,0,0,1,32.318,22.684a14.562,14.562,0,0,1,7.171,1.942l3.392,1.907-.07-3.9A18.029,18.029,0,0,1,60.271,4.5l.962-.028a18.047,18.047,0,0,1,18.289,16.9,14.692,14.692,0,0,1-.045,1.544l-.2,5.756,4.048-4.1a14.764,14.764,0,0,1,25.3,10.351,14.99,14.99,0,0,1-.3,2.949l-.457,2.256,2.263.394c5.77,1.011,9.981,5.484,10.253,10.874s-3.458,11.557-9.113,13.339l1.5,4.166a18.112,18.112,0,0,0,12.087-17.728A16.2,16.2,0,0,0,113.036,36.6Z" transform="translate(0 0.002)" fill="#500130"/>
    <path id="Path_158" data-name="Path 158" d="M63.53,271.735l.718-1.109,25.14-38.775-24.421-.042,20.789-33.2H87.77l-14.078,28.9,26.213.129Z" transform="translate(-41.382 -129.368)" fill="#500130"/>
    <path id="Path_159" data-name="Path 159" d="M174.79,241.886l.641-.994,22.539-34.762-21.894-.038,18.638-29.762h1.8l-12.624,25.907,23.512.115Z" transform="translate(-113.853 -114.855)" fill="#500130"/>
  </g>
</svg>
