<svg id="Warstwa_2" data-name="Warstwa 2" xmlns="http://www.w3.org/2000/svg" width="131.503" height="101.556" viewBox="0 0 131.503 101.556">
  <g id="Layer_1" data-name="Layer 1" transform="translate(0 0)">
    <path id="Path_71" data-name="Path 71" d="M87.622,215.142c-7.44-9.943-6.952-27.116-7.3-21.622-.934,14.343-6.586,21.615-6.586,21.615A6.3,6.3,0,0,0,73,218.078c0,3.8,3.437,6.875,7.67,6.875s7.67-3.078,7.67-6.875a6.3,6.3,0,0,0-.739-2.935Z" transform="translate(-47.55 -125.353)" fill="#500130"/>
    <path id="Path_72" data-name="Path 72" d="M152.4,162.88c-.805,12.523-5.742,18.875-5.742,18.875a5.445,5.445,0,0,0-.662,2.562c0,3.319,3.009,6.007,6.708,6.007s6.7-2.688,6.7-6.007a5.477,5.477,0,0,0-.645-2.562C152.275,173.06,152.715,158.083,152.4,162.88Z" transform="translate(-95.1 -105.482)" fill="#500130"/>
    <path id="Path_73" data-name="Path 73" d="M213.283,234.919c-5.965-7.942-5.55-21.671-5.833-17.275-.746,11.452-5.257,17.275-5.257,17.275a5.069,5.069,0,0,0-.593,2.346c0,3.037,2.74,5.494,6.132,5.494s6.136-2.44,6.136-5.494a5.069,5.069,0,0,0-.593-2.346Z" transform="translate(-131.316 -141.204)" fill="#500130"/>
    <path id="Path_74" data-name="Path 74" d="M242.513,180.429c-3.744-5.006-3.486-13.631-3.668-10.867-.471,7.206-3.312,10.867-3.312,10.867a3.183,3.183,0,0,0-.373,1.478,3.882,3.882,0,0,0,7.719,0,3.138,3.138,0,0,0-.373-1.478Z" transform="translate(-153.176 -110.09)" fill="#500130"/>
    <path id="Path_75" data-name="Path 75" d="M130.332,16.774A24.265,24.265,0,0,0,103.1.329a24.216,24.216,0,0,1,8.81,30.9A19.29,19.29,0,0,0,93.858,18.639a19.018,19.018,0,0,0-10.11,2.88A22.606,22.606,0,0,0,60.072,3,22.563,22.563,0,0,0,38.565,22.255a18.537,18.537,0,0,0-6.23-1.081A19.282,19.282,0,0,0,13.056,40.418a6.822,6.822,0,0,0,.024.7C7.7,42.594,0,45.7,0,56.7c0,8.172,6.8,15.19,16.037,15.629l2.852-4.365c-.349,0-.718.017-.983.031l-.7.017c-7.018,0-12.732-5.073-12.732-11.306,0-7.429,4.044-9.835,11.529-11.7l1.687-.641.045-1.7-.087-.91a9.762,9.762,0,0,1-.119-1.318A14.789,14.789,0,0,1,32.318,25.65,14.548,14.548,0,0,1,39.489,27.6L42.881,29.5l-.073-3.9A18.03,18.03,0,0,1,60.268,7.476l.969-.028a18.036,18.036,0,0,1,18.282,16.9,14.992,14.992,0,0,1-.038,1.544l-.2,5.756,4.044-4.1a14.761,14.761,0,0,1,25.227,8.873,24.111,24.111,0,0,1-11.072,7.457,23.564,23.564,0,0,1-3.319.8,24.212,24.212,0,0,0,20.534,2.653c.648-.209,1.272-.457,1.89-.718a11.156,11.156,0,0,1,3.81,7.757c.268,5.407-3.462,11.557-9.117,13.342l1.5,4.184a18.132,18.132,0,0,0,12.094-17.728,15.518,15.518,0,0,0-4.156-9.762,24.272,24.272,0,0,0,9.622-27.629Z" transform="translate(0 0.029)" fill="#500130"/>
  </g>
</svg>
