<svg id="Warstwa_2" data-name="Warstwa 2" xmlns="http://www.w3.org/2000/svg" width="124.886" height="118.19" viewBox="0 0 124.886 118.19">
  <g id="Layer_1" data-name="Layer 1" transform="translate(0 0)">
    <path id="Path_149" data-name="Path 149" d="M113.036,36.6c.045-.568.073-1.13.073-1.694A19.276,19.276,0,0,0,93.854,15.686a19.039,19.039,0,0,0-10.11,2.88,22.959,22.959,0,0,0-45.2.718A18.565,18.565,0,0,0,32.311,18.2,19.279,19.279,0,0,0,13.056,37.455a5.887,5.887,0,0,0,.028.7C7.708,39.623,0,42.733,0,53.732,0,61.9,6.8,68.919,16.054,69.351l2.834-4.368c-.349,0-.718.021-.98.031h-.7c-7.021,0-12.735-5.076-12.742-11.3,0-7.433,4.048-9.842,11.533-11.7l1.684-.641.049-1.7-.08-.91a9.263,9.263,0,0,1-.126-1.321A14.792,14.792,0,0,1,32.311,22.683a14.552,14.552,0,0,1,7.175,1.942l3.4,1.907-.07-3.9A18.024,18.024,0,0,1,60.264,4.506l.969-.021A18.043,18.043,0,0,1,79.526,21.379a14.889,14.889,0,0,1-.049,1.541l-.2,5.759,4.044-4.107a14.642,14.642,0,0,1,10.532-4.424A14.792,14.792,0,0,1,108.633,34.92a15.263,15.263,0,0,1-.3,2.956l-.457,2.249,2.263.4c5.773,1.008,9.985,5.477,10.25,10.863s-3.455,11.561-9.117,13.346l1.5,4.166a18.132,18.132,0,0,0,12.094-17.728A16.219,16.219,0,0,0,113.036,36.6Z" transform="translate(0 0.003)" fill="#500130"/>
    <path id="Path_150" data-name="Path 150" d="M67.576,197.12h1.3v-1.276h-1.3Zm5.059,1.722.917.91.924-.91-.924-.906Zm-6.875-8.622-.91.924.92.9.906-.9Zm12.484,6.9h1.3v-1.276h-1.3ZM68.8,185.057H67.514v1.29H68.8Zm10.839,0h-1.3v1.29h1.3Zm-5.2-1.764-.92-.913-.917.913.917.913Zm6.4,9.762-.826-1.98.826-1.883-1.52,1.583H76.843l.9-1.395-1.59-.3,1.743-1.775H80.05l-1.973-.718-.746-1.97V186.8l-1.715,1.788-.255-1.68-1.429.969v-2.409l1.562-1.625-1.876.927-1.949-.854,1.562,1.551v2.409l-1.45-.868-.241,1.6L69.8,186.825v-2.186l-.7,1.97-2.029.781h2.182L71,189.1l-1.8.394,1.105,1.293H67.852L66.3,189.22l.746,1.938-.746,1.9,1.551-1.628h2.479l-1.1,1.454,1.8.286-1.743,1.743H67.092l2.029.7.662,1.956.028-2.148,1.684-1.684.307,1.743,1.45-1.077v2.479L71.69,198.4l1.9-.837,1.865.837-1.52-1.52V194.4l1.429.973.261-1.7,1.743,1.743.038,2.148.631-1.9,2.019-.75H77.9l-1.743-1.684,1.687-.492-.994-1.3h2.472Zm-9.152-3.267,1.046.987h-1.4Zm.073,2.716-.432-1.077h1.422Zm1.489.9-.962-.4.962-1.046Zm0-3.106-.962-.99.962-.436Zm2.2-.488.373.987H74.4Zm-1.482-.938,1.021.425-1.021.994Zm0,4.557v-1.485l1.021.987Zm1.426-.913-1-1.077h1.52Zm5.85-2.322-.913.906.913.913.924-.913Z" transform="translate(-42.241 -118.796)" fill="#500130"/>
    <path id="Path_151" data-name="Path 151" d="M215.389,169.159h1.684V167.5h-1.684Zm6.561,2.235,1.189,1.168,1.2-1.168-1.2-1.2Zm-8.921-11.181-1.178,1.2,1.2,1.164,1.171-1.164Zm16.194,8.946h1.687V167.5h-1.687Zm-12.261-15.653h-1.666v1.68h1.666Zm14.053,0h-1.68v1.68h1.677Zm-6.746-2.3-1.192-1.178-1.185,1.178,1.185,1.192Zm8.3,12.694-1.077-2.58,1.077-2.44-1.973,2.057h-3.207l1.157-1.806-2.06-.387,2.273-2.3h2.789l-2.562-.917-.969-2.555V155.8l-2.221,2.315-.349-2.2L223.6,157.18v-3.138l2.019-2.092-2.4,1.206-2.521-1.109,2.019,2.012V157.2l-1.876-1.137-.31,2.074-2.273-2.315V152.99l-.886,2.555-2.632,1.015h2.827l2.27,2.217-2.329.512,1.433,1.68h-3.207l-2.019-2.057.976,2.514-.976,2.5,2.019-2.113h3.211l-1.433,1.865,2.329.37-2.27,2.263h-2.827l2.632.91.847,2.531.038-2.789,2.186-2.186.4,2.263,1.876-1.395v3.2l-2.019,1.977,2.44-1.084,2.44,1.084-1.97-1.977v-3.211l1.848,1.259.349-2.193,2.263,2.256.049,2.789.819-2.465,2.618-.976h-2.789l-2.273-2.175,2.189-.645-1.286-1.677h3.207Zm-11.853-4.243,1.374,1.286h-1.844Zm.091,3.514-.561-1.395h1.844Zm1.928,1.154-1.245-.516,1.245-1.37Zm0-4.034-1.245-1.286,1.245-.551Zm2.866-.634.478,1.286h-1.869Zm-1.924-1.2,1.321.551-1.321,1.286Zm0,5.909v-1.924L225,163.728Zm1.844-1.192-1.3-1.395H226.2Zm7.593-3.009-1.192,1.182,1.192,1.182,1.189-1.182Z" transform="translate(-137.993 -97.724)" fill="#500130"/>
    <path id="Path_152" data-name="Path 152" d="M99.669,293.506h1.691v-1.663H99.669Zm6.565,2.231,1.192,1.175,1.192-1.175-1.192-1.192Zm-8.921-11.184-1.182,1.2,1.192,1.168,1.182-1.168Zm16.2,8.953h1.68v-1.663h-1.68Zm-12.247-15.653H99.6v1.68h1.666Zm14.053,0h-1.68v1.68h1.68Zm-6.749-2.294-1.189-1.178-1.189,1.178,1.189,1.185Zm8.308,12.69-1.081-2.576,1.081-2.44-1.97,2.064H111.7l1.161-1.806-2.06-.384,2.273-2.308h2.789l-2.559-.927-.962-2.559v2.834l-2.221,2.318-.349-2.2-1.855,1.262v-3.138l2.022-2.109-2.409,1.2-2.521-1.109,2.019,2.015v3.138l-1.879-1.14-.314,2.092-2.273-2.318v-2.834l-.9,2.548-2.636,1.018h2.834l2.27,2.217-2.332.509,1.429,1.68h-3.207L98,283.246l.973,2.5-.973,2.5,2.019-2.113h3.207l-1.429,1.876,2.332.349-2.259,2.273H99.038l2.636.91.847,2.528.035-2.789,2.189-2.179.4,2.259,1.876-1.395v3.218L105,295.165l2.461-1.081,2.44,1.081-1.977-1.97v-3.218l1.855,1.262.349-2.2,2.263,2.259.045,2.789.823-2.468,2.611-.969H113.08l-2.273-2.179,2.189-.645-1.29-1.68h3.2ZM105,284.009l1.37,1.286h-1.841Zm.091,3.514-.561-1.395h1.841Zm1.928,1.157-1.245-.516,1.245-1.374Zm0-4.044-1.245-1.28,1.245-.551Zm2.866-.628.474,1.286h-1.851Zm-1.924-1.2,1.321.551-1.321,1.28Zm0,5.909V286.8l1.321,1.286Zm1.837-1.192-1.29-1.395h1.973Zm7.6-3.009-1.192,1.178,1.192,1.185,1.192-1.185Z" transform="translate(-62.616 -178.722)" fill="#500130"/>
    <path id="Path_153" data-name="Path 153" d="M177.738,242.767h1.171v-1.161h-1.171Zm4.56,1.53.826.823.826-.823-.826-.823Zm-6.2-7.76-.819.837.826.8.816-.8Zm11.254,6.223h1.168V241.6h-1.168Zm-8.507-10.87h-1.168v1.164h1.168Zm9.762,0h-1.171v1.164h1.171Zm-4.693-1.6-.826-.819-.823.819.823.823Zm5.766,8.817-.746-1.782.746-1.687-1.367,1.419h-2.228l.805-1.245-1.433-.272,1.579-1.6h1.938l-1.778-.645-.673-1.771v1.966l-1.541,1.6-.241-1.524-1.283.868V232.27l1.395-1.464-1.673.833-1.743-.767,1.395,1.395v2.165l-1.3-.784-.209,1.44-1.579-1.6v-1.966l-.614,1.771-1.834.7h1.97l1.572,1.541-1.614.349.99,1.161h-2.242l-1.395-1.419.673,1.743-.673,1.743,1.395-1.464H180.2l-.99,1.29,1.614.261-1.572,1.569h-1.97l1.834.631.586,1.761.028-1.938,1.513-1.517.275,1.569,1.3-.976v2.235l-1.395,1.367,1.712-.746,1.677.746-1.367-1.367v-2.235l1.283.879.241-1.523,1.565,1.569.031,1.938.575-1.712,1.82-.68h-1.931l-1.579-1.51,1.52-.45-.893-1.161h2.228Zm-8.224-2.939.955.886h-1.3Zm.063,2.44-.411-.959h1.283Zm1.332.809-.861-.349.861-.952Zm0-2.789-.861-.889.861-.383Zm1.991-.436.349.886h-1.286Zm-1.332-.837.913.383-.913.889Zm0,4.11v-1.342l.913.892Zm1.279-.833-.9-.959h1.374Zm5.278-2.092-.84.784.826.826.816-.826Z" transform="translate(-114.172 -149.469)" fill="#500130"/>
    <path id="Path_154" data-name="Path 154" d="M146.073,185.063h.826v-.816h-.826Zm3.211,1.088.582.582.582-.582-.582-.565Zm-4.365-5.446-.579.586.582.568.572-.568Zm7.917,4.372h.823v-.816h-.823Zm-5.989-7.645h-.816v.819h.816Zm6.868,0H152.9v.819h.819Zm-3.295-1.126-.586-.575-.579.575.579.582Zm4.058,6.206-.523-1.262.523-1.189-.962.994h-1.562l.561-.882-1.008-.192,1.112-1.126h1.363l-1.255-.457-.471-1.241v1.395l-1.084,1.109-.164-1.077-.9.614v-1.527l.99-1.046-1.182.593-1.234-.544.99.983v1.527l-.917-.526-.15,1.015-1.112-1.133v-1.395l-.436,1.241-1.286.5h1.395l1.109,1.081-1.14.251.7.823h-1.569l-.994-.994.478,1.231-.478,1.22.99-1.046h1.569l-.7.913,1.14.181-1.109,1.109h-1.395l1.286.439.418,1.241.017-1.367,1.07-1.046.192,1.1.92-.7V184.9l-.99.959,1.2-.526,1.185.526-.962-.959v-1.576l.9.617.164-1.077,1.109,1.105.028,1.367.4-1.206,1.279-.474H152.62l-1.112-1.063,1.077-.321-.631-.819h1.562Zm-5.8-2.074.673.631h-.9Zm.049,1.719-.275-.7h.9Zm.941.565-.61-.251.61-.669Zm0-1.977-.61-.624.61-.268Zm1.395-.307.234.631h-.906Zm-.941-.586.645.268-.645.624Zm0,2.887v-.952l.645.624Zm.9-.582-.635-.7h.969Zm3.716-1.468-.586.572.586.579.575-.579Z" transform="translate(-94.019 -114.464)" fill="#500130"/>
    <path id="Path_155" data-name="Path 155" d="M245.984,252.178h.938v-.927h-.938Zm3.664,1.245.662.655.662-.655-.662-.666Zm-4.985-6.24-.662.669.662.645.662-.645Zm9.036,5h.945v-.927H253.7Zm-6.833-8.716h-.931v.931h.931Zm7.848,0h-.952v.931h.938Zm-3.772-1.286-.662-.655-.662.655.662.666Zm4.64,7.088-.607-1.44.607-1.36-1.1,1.147h-1.8l.648-1-1.154-.216,1.266-1.293h1.565l-1.433-.512-.54-1.426v1.579l-1.234,1.3-.188-1.234-1.046.7v-1.743l1.126-1.182-1.342.676-1.395-.621,1.13,1.126V245.5l-1.046-.628-.174,1.157-1.272-1.3v-1.579l-.488,1.426-1.471.565h1.579l1.266,1.241-1.3.286.795.934h-1.788l-1.14-1.157.54,1.395-.54,1.395,1.123-1.178h1.788l-.795,1.046,1.3.206-1.266,1.259h-1.579l1.471.512.471,1.415v-1.558l1.224-1.22.223,1.262,1.046-.784v1.8l-1.13,1.1,1.395-.607,1.346.607-1.1-1.1v-1.8l1.046.7.188-1.238,1.262,1.269.028,1.558.453-1.395,1.464-.547h-1.565l-1.262-1.182,1.224-.349-.718-.934h1.8Zm-6.624-2.371.767.718h-1.046Zm.049,1.966-.314-.774h1.046Zm1.081.641-.7-.286.7-.767Zm0-2.252-.7-.718.7-.307Zm1.593-.349.268.718H250.9Zm-1.056-.68.736.307-.736.7Zm0,3.305v-1.081l.736.718Zm1.028-.669-.725-.774h1.091Zm4.236-1.684-.666.655.666.669.662-.669Z" transform="translate(-158.934 -157.318)" fill="#500130"/>
  </g>
</svg>
