<svg id="Warstwa_2" data-name="Warstwa 2" xmlns="http://www.w3.org/2000/svg" width="135.932" height="131.631" viewBox="0 0 135.932 131.631">
  <g id="Layer_1" data-name="Layer 1" transform="translate(0 0)">
    <path id="Path_225" data-name="Path 225" d="M131.046,100.628A30.448,30.448,0,1,1,100.6,70.18a30.448,30.448,0,0,1,30.448,30.448Z" transform="translate(-32.399 -32.42)" fill="#500130"/>
    <path id="Path_226" data-name="Path 226" d="M60.187,55.177a2.324,2.324,0,0,1-.2,3.266h0a2.33,2.33,0,0,1-3.282-.226L39.451,38.529a2.319,2.319,0,0,1,.226-3.271h0a2.33,2.33,0,0,1,3.277.215Z" transform="translate(-17.954 -16.023)" fill="#500130"/>
    <path id="Path_227" data-name="Path 227" d="M127.1,28.516a2.319,2.319,0,0,1-2.281,2.3h0a2.314,2.314,0,0,1-2.362-2.3L122.27,2.34A2.335,2.335,0,0,1,124.562,0h0a2.335,2.335,0,0,1,2.34,2.314Z" transform="translate(-56.476 0)" fill="#500130"/>
    <path id="Path_228" data-name="Path 228" d="M28.58,113.147a2.33,2.33,0,0,1,2.152,2.491h0a2.324,2.324,0,0,1-2.507,2.152L2.146,115.611a2.281,2.281,0,0,1-2.152-2.464h0a2.319,2.319,0,0,1,2.486-2.152Z" transform="translate(0.014 -51.272)" fill="#500130"/>
    <path id="Path_229" data-name="Path 229" d="M41.007,160.679a2.314,2.314,0,0,1,3.228.721h0a2.308,2.308,0,0,1-.716,3.2L21.39,178.585a2.324,2.324,0,0,1-3.228-.689h0a2.314,2.314,0,0,1,.732-3.228Z" transform="translate(-8.211 -74.054)" fill="#500130"/>
    <path id="Path_230" data-name="Path 230" d="M89.655,191.811a2.335,2.335,0,0,1,2.992-1.356h0A2.346,2.346,0,0,1,94,193.446l-9.227,24.5A2.314,2.314,0,0,1,81.8,219.3h0a2.314,2.314,0,0,1-1.367-2.986Z" transform="translate(-37.08 -87.915)" fill="#500130"/>
    <path id="Path_231" data-name="Path 231" d="M189.558,166.421a2.33,2.33,0,0,1-.969-3.142h0a2.314,2.314,0,0,1,3.137-.963L214.862,174.5a2.287,2.287,0,0,1,.968,3.121h0a2.3,2.3,0,0,1-3.126.979Z" transform="translate(-86.989 -74.857)" fill="#500130"/>
    <path id="Path_232" data-name="Path 232" d="M198.269,111.067a2.319,2.319,0,0,1-2.572-2.028h0a2.324,2.324,0,0,1,2.039-2.566l25.987-3.056a2.33,2.33,0,0,1,2.583,2.045h0a2.33,2.33,0,0,1-2.039,2.572Z" transform="translate(-90.389 -47.767)" fill="#500130"/>
    <path id="Path_233" data-name="Path 233" d="M157.445,216.382a2.324,2.324,0,0,1-1.42,2.959h0a2.324,2.324,0,0,1-2.948-1.42l-8.711-24.7a2.292,2.292,0,0,1,1.42-2.943h0a2.3,2.3,0,0,1,2.959,1.4Z" transform="translate(-66.621 -87.838)" fill="#500130"/>
    <path id="Path_234" data-name="Path 234" d="M173.21,53.1a2.319,2.319,0,0,1-3.228.409h0a2.314,2.314,0,0,1-.4-3.228L185.72,29.643a2.319,2.319,0,0,1,3.261-.4h0a2.335,2.335,0,0,1,.387,3.228Z" transform="translate(-78.109 -13.281)" fill="#500130"/>
  </g>
</svg>
