<svg id="Warstwa_2" data-name="Warstwa 2" xmlns="http://www.w3.org/2000/svg" width="108.757" height="105.322" viewBox="0 0 108.757 105.322">
  <g id="Layer_1" data-name="Layer 1" transform="translate(0 0)">
    <path id="Path_235" data-name="Path 235" d="M106.641,133.335a26.688,26.688,0,1,1,26.684-26.685,26.688,26.688,0,0,1-26.684,26.685Zm0-48.714a22.03,22.03,0,1,0,22.03,22.03,22.03,22.03,0,0,0-22.03-22.03Z" transform="translate(-52.071 -52.084)" fill="#500130"/>
    <path id="Path_236" data-name="Path 236" d="M65.073,59.191a1.858,1.858,0,0,1-.171,2.615h0a1.855,1.855,0,0,1-2.618-.171L48.485,45.87a1.851,1.851,0,0,1,.174-2.611h0a1.855,1.855,0,0,1,2.618.171Z" transform="translate(-31.277 -27.877)" fill="#500130"/>
    <path id="Path_237" data-name="Path 237" d="M154.835,22.79A1.851,1.851,0,0,1,153,24.655h0a1.851,1.851,0,0,1-1.869-1.844L151,1.869A1.851,1.851,0,0,1,152.83,0h0A1.855,1.855,0,0,1,154.7,1.844Z" transform="translate(-98.35 0)" fill="#500130"/>
    <path id="Path_238" data-name="Path 238" d="M22.868,138.7a1.862,1.862,0,0,1,1.7,2h0a1.858,1.858,0,0,1-2,1.7L1.689,140.7a1.848,1.848,0,0,1-1.7-2h0A1.862,1.862,0,0,1,2,136.988Z" transform="translate(0.019 -89.226)" fill="#500130"/>
    <path id="Path_239" data-name="Path 239" d="M40.61,198.29a1.851,1.851,0,0,1,2.559.575h0a1.858,1.858,0,0,1-.565,2.559L24.9,212.616a1.844,1.844,0,0,1-2.555-.575h0a1.851,1.851,0,0,1,.579-2.559Z" transform="translate(-14.359 -128.972)" fill="#500130"/>
    <path id="Path_240" data-name="Path 240" d="M106.635,236.172a1.855,1.855,0,0,1,2.388-1.084h0a1.872,1.872,0,0,1,1.088,2.4l-7.384,19.6a1.844,1.844,0,0,1-2.381,1.077h0a1.844,1.844,0,0,1-1.091-2.388Z" transform="translate(-64.567 -153.052)" fill="#500130"/>
    <path id="Path_241" data-name="Path 241" d="M233.536,203.555a1.844,1.844,0,0,1-.777-2.5h0a1.848,1.848,0,0,1,2.5-.777l18.537,9.744a1.844,1.844,0,0,1,.777,2.5h0a1.851,1.851,0,0,1-2.51.784Z" transform="translate(-151.466 -130.315)" fill="#500130"/>
    <path id="Path_242" data-name="Path 242" d="M243.7,133.787a1.851,1.851,0,0,1-2.057-1.621h0a1.851,1.851,0,0,1,1.625-2.06l20.8-2.44a1.851,1.851,0,0,1,2.057,1.621h0a1.858,1.858,0,0,1-1.628,2.067Z" transform="translate(-157.385 -83.149)" fill="#500130"/>
    <path id="Path_243" data-name="Path 243" d="M188.665,255.783a1.855,1.855,0,0,1-1.13,2.371h0a1.848,1.848,0,0,1-2.36-1.133l-6.973-19.76a1.851,1.851,0,0,1,1.13-2.36h0a1.851,1.851,0,0,1,2.367,1.133Z" transform="translate(-116.001 -152.938)" fill="#500130"/>
    <path id="Path_244" data-name="Path 244" d="M212.044,54.857a1.855,1.855,0,0,1-2.6.328h0a1.851,1.851,0,0,1-.321-2.6l12.9-16.515a1.851,1.851,0,0,1,2.6-.324h0a1.862,1.862,0,0,1,.317,2.608Z" transform="translate(-135.953 -23.03)" fill="#500130"/>
  </g>
</svg>
