<svg id="Warstwa_2" data-name="Warstwa 2" xmlns="http://www.w3.org/2000/svg" width="144.61" height="74.119" viewBox="0 0 144.61 74.119">
  <g id="Layer_1" data-name="Layer 1">
    <path id="Path_207" data-name="Path 207" d="M135.355,28.867c0-.3.024-.607.024-.917a15.667,15.667,0,0,0-23.2-13.739A18.338,18.338,0,0,0,94.13,0l-.959.024A18.317,18.317,0,0,0,76.7,12.2,22.828,22.828,0,0,0,59.128,5.3,22.292,22.292,0,0,0,37.9,24.167a18.178,18.178,0,0,0-6.021-1.025A19.077,19.077,0,0,0,12.823,42.184a4.316,4.316,0,0,0,.028.6C7.534,44.241,0,47.34,0,58.179,0,66.8,7.67,73.815,17.044,73.815l.906-.021c5.84-.3,30.052.017,30.059.017v-.4h.126l.021.377v-.377c3.214.436,10.668.45,28.009.485,0,0,13.035.22,22.5.22,3.566,0,6.624-.031,8.325-.119,8.883-.443,16.274-8.88,15.946-18.129h1.68c2.918,0,5.428-.028,6.8-.1a13.428,13.428,0,0,0,9.7-5.034,14.869,14.869,0,0,0,3.486-10.11A13.239,13.239,0,0,0,135.355,28.867ZM118.29,55.892c.3,6.073-4.564,13.129-11.522,13.478-6.139.3-30.5-.115-30.554-.112-10.808-.021-27.193-.063-28.061-.1l-.059,1.046-.021-1.067S36.878,69,27.831,69c-4.347,0-8.2.031-10.11.129h-.673c-6.826,0-12.383-4.923-12.387-10.982,0-7.217,3.94-9.563,11.229-11.365l1.743-.722.059-1.764-.091-.875a9.433,9.433,0,0,1-.122-1.262,14.409,14.409,0,0,1,14.4-14.391,14.161,14.161,0,0,1,6.973,1.9l3.535,1.977-.066-4.048A17.578,17.578,0,0,1,59.351,9.915l.948-.024a18.129,18.129,0,0,1,11.829,4.354,17.323,17.323,0,0,1,4.365,5.641,16.857,16.857,0,0,1,1.649,6.495,14.719,14.719,0,0,1-.045,1.5l-.227,5.993L82.1,29.633a14.374,14.374,0,0,1,24.641,10.079,14.7,14.7,0,0,1-.289,2.873l-.464,2.329,2.353.411a12.16,12.16,0,0,1,8.555,5.871,10.511,10.511,0,0,1,1.395,4.672A.124.124,0,0,1,118.29,55.892Zm19.251-8.1a8.823,8.823,0,0,1-6.349,3.357c-1.743.091-5.292.1-9.162.091a16.386,16.386,0,0,0-10.7-9.967c.042-.519.063-1.046.063-1.569A19.049,19.049,0,0,0,82.486,23.407a21.184,21.184,0,0,0-1.555-4.968c-.164-.37-.394-.7-.579-1.046A13.54,13.54,0,0,1,93.415,4.686l.729-.017a13.584,13.584,0,0,1,13.774,12.687,11.021,11.021,0,0,1-.031,1.164l-.244,6.017,4.222-4.288a11,11,0,0,1,18.871,7.7,11.158,11.158,0,0,1-.22,2.2l-.478,2.335,2.346.415a8.772,8.772,0,0,1,7.558,7.994,10.2,10.2,0,0,1-2.4,6.892Z" fill="#500130"/>
  </g>
</svg>
