<svg id="Warstwa_2" data-name="Warstwa 2" xmlns="http://www.w3.org/2000/svg" width="125.423" height="122.656" viewBox="0 0 125.423 122.656">
  <g id="Layer_1" data-name="Layer 1" transform="translate(0 0)">
    <path id="Path_81" data-name="Path 81" d="M116.819,42.732A24.247,24.247,0,0,0,97,.321a24.209,24.209,0,0,1,10.616,25.589A19.2,19.2,0,0,0,93.851,20.1a18.955,18.955,0,0,0-10.11,2.887,22.962,22.962,0,0,0-45.2.732,18.45,18.45,0,0,0-6.227-1.081A19.279,19.279,0,0,0,13.056,41.888c0,.23,0,.457.021.7C7.7,44.05,0,47.16,0,58.159c0,8.172,6.8,15.183,16.037,15.622l2.834-4.368c-.349,0-.715,0-.98.028l-.7.021c-7.011,0-12.728-5.076-12.732-11.31,0-7.426,4.044-9.842,11.533-11.7l1.684-.641.052-1.7-.066-.91a9.12,9.12,0,0,1-.122-1.314A14.792,14.792,0,0,1,32.314,27.107a14.555,14.555,0,0,1,7.171,1.945l3.4,1.907-.066-3.9A18.023,18.023,0,0,1,60.275,8.932l.962-.028a18.049,18.049,0,0,1,18.293,16.9c.017.331,0,.669-.045,1.541l-.2,5.756L83.322,29a14.74,14.74,0,0,1,22.626,1.893,23.9,23.9,0,0,1-17.9,13.774,24.209,24.209,0,0,0,20.538,2.653,24.5,24.5,0,0,0,3.953-1.677,11.622,11.622,0,0,1,7.844,10.2c.272,5.407-3.455,11.554-9.11,13.339l1.5,4.184a18.123,18.123,0,0,0,12.083-17.731A15.845,15.845,0,0,0,116.819,42.732Z" transform="translate(0 0.042)" fill="#500130"/>
    <rect id="Rectangle_4" data-name="Rectangle 4" width="1.293" height="1.293" transform="translate(25.269 70.724)" fill="#500130"/>
    <path id="Path_82" data-name="Path 82" d="M78.064,210.866l.265-1.7,1.743,1.743.031,2.151.631-1.9,2.019-.746H80.6l-1.743-1.687,1.694-.488-.994-1.3h2.472l1.52,1.621-.826-1.984.826-1.876-1.52,1.586H79.546l.889-1.395-1.59-.3,1.743-1.778h2.151l-1.97-.715-.75-1.97v2.186l-1.7,1.778-.258-1.687-1.422.969v-2.419L78.2,199.34l-1.879.927-1.949-.858,1.572,1.555v2.413l-1.45-.875-.237,1.6-1.743-1.785v-2.186l-.676,1.97-2.029.781H72l1.743,1.712-1.8.394,1.105,1.3H70.562L69,204.705l.753,1.942L69,208.565l1.565-1.621h2.472l-1.105,1.44,1.8.286-1.743,1.743h-2.2l2.029.7.666,1.952.024-2.151,1.694-1.684.3,1.743,1.45-1.081v2.486L74.4,213.9l1.9-.837,1.865.837-1.517-1.52V209.89Zm.031-2.852-.994-1.07h1.524Zm.063-2.716.373.994H77.1Zm-1.489-.924,1.018.425-1.018.987Zm0,3.071,1.018.987-1.018.5ZM74.383,205.3l1.046.994h-1.4Zm.07,2.716-.429-1.07h1.422Zm1.492.882-.959-.39.959-1.046Zm0-3.11-.959-.987.959-.422Z" transform="translate(-44.945 -129.83)" fill="#500130"/>
    <rect id="Rectangle_5" data-name="Rectangle 5" width="1.297" height="1.283" transform="translate(36.003 81.514)" fill="#500130"/>
    <path id="Path_83" data-name="Path 83" d="M87.18,240.65l.917.91.924-.91-.924-.92Z" transform="translate(-56.787 -156.139)" fill="#500130"/>
    <path id="Path_84" data-name="Path 84" d="M87.993,195.13l-.913.913.913.917.92-.917Z" transform="translate(-56.721 -127.087)" fill="#500130"/>
    <rect id="Rectangle_6" data-name="Rectangle 6" width="1.29" height="1.293" transform="translate(36.104 70.724)" fill="#500130"/>
    <path id="Path_85" data-name="Path 85" d="M111.064,218.47l-.92-.91-.924.91.924.91Z" transform="translate(-71.143 -141.698)" fill="#500130"/>
    <path id="Path_86" data-name="Path 86" d="M65.76,217.64l-.91.927.917.892.906-.892Z" transform="translate(-42.241 -141.75)" fill="#500130"/>
    <rect id="Rectangle_7" data-name="Rectangle 7" width="1.297" height="1.283" transform="translate(25.335 81.514)" fill="#500130"/>
    <rect id="Rectangle_8" data-name="Rectangle 8" width="1.666" height="1.677" transform="translate(77.302 60.254)" fill="#500130"/>
    <path id="Path_87" data-name="Path 87" d="M224.2,187.157l2.465-1.081,2.419,1.081-1.973-1.97V181.97l1.858,1.262.349-2.2,2.256,2.263.049,2.789.823-2.468,2.615-.973h-2.789L230,180.467l2.186-.641-1.283-1.677h3.207l1.973,2.113-1.077-2.573,1.077-2.44-1.973,2.05h-3.207l1.157-1.8-2.06-.384,2.27-2.308h2.789l-2.573-.924-.966-2.555v2.831l-2.214,2.315-.349-2.2-1.858,1.262v-3.138l2.029-2.092-2.416,1.2-2.524-1.109,2.022,2.015v3.138l-1.879-1.133-.31,2.074-2.273-2.318v-2.831l-.886,2.555-2.636,1.011h2.838l2.266,2.224-2.329.509,1.433,1.677h-3.2l-2.012-2.05.969,2.51-.969,2.5,2.012-2.113h3.214l-1.433,1.865,2.329.37-2.266,2.263h-2.838l2.636.91.847,2.531.038-2.789,2.186-2.182.4,2.252,1.879-1.395v3.218Zm4.8-7.621-1.3-1.395H229.7Zm.08-3.518.478,1.283h-1.855Zm-1.921-1.2,1.325.554-1.325,1.286Zm0,3.985,1.325,1.283-1.325.648Zm-.948-3.985v1.841l-1.241-1.286Zm-2.022,1.206,1.374,1.283h-1.844Zm.087,3.518-.558-1.395h1.844Zm.7.635,1.241-1.374v1.89Z" transform="translate(-141.497 -109.611)" fill="#500130"/>
    <rect id="Rectangle_9" data-name="Rectangle 9" width="1.687" height="1.663" transform="translate(77.371 74.241)" fill="#500130"/>
    <path id="Path_88" data-name="Path 88" d="M243.151,221.849l-1.189-1.189-1.192,1.189,1.192,1.175Z" transform="translate(-156.831 -143.717)" fill="#500130"/>
    <path id="Path_89" data-name="Path 89" d="M214.171,193.206l-1.189-1.2-1.182,1.2,1.2,1.164Z" transform="translate(-137.96 -125.055)" fill="#500130"/>
    <rect id="Rectangle_10" data-name="Rectangle 10" width="1.68" height="1.663" transform="translate(91.215 74.241)" fill="#500130"/>
    <path id="Path_90" data-name="Path 90" d="M270.565,191.91l-1.185,1.171,1.185,1.189,1.2-1.189Z" transform="translate(-175.466 -124.99)" fill="#500130"/>
    <rect id="Rectangle_11" data-name="Rectangle 11" width="1.677" height="1.677" transform="translate(91.341 60.254)" fill="#500130"/>
    <path id="Path_91" data-name="Path 91" d="M241.832,162.83l-1.182,1.178,1.182,1.189,1.192-1.189Z" transform="translate(-156.752 -106.048)" fill="#500130"/>
    <path id="Path_92" data-name="Path 92" d="M120.368,304.594l-1.077-2.576,1.077-2.44-1.959,2.06H115.2l1.161-1.8-2.057-.383,2.263-2.311h2.789l-2.548-.927-.973-2.552V296.5l-2.217,2.315-.349-2.2-1.848,1.259v-3.138l2.019-2.092-2.409,1.2-2.517-1.112,2.008,2.019v3.138l-1.872-1.15-.307,2.092-2.277-2.315v-2.834l-.9,2.538-2.639,1.018h2.838l2.27,2.221-2.332.506,1.433,1.68h-3.214l-2.015-2.05.973,2.51-.973,2.5,2.015-2.113h3.214l-1.433,1.872,2.332.366-2.27,2.263h-2.838l2.639.913.847,2.528.031-2.789,2.193-2.189.39,2.259,1.876-1.395v3.218l-2.008,1.97,2.44-1.084,2.413,1.084-1.963-1.97V306.31l1.848,1.266.349-2.2,2.259,2.263.049,2.789.826-2.465,2.6-.976h-2.789l-2.263-2.179,2.186-.641-1.29-1.68h3.249Zm-11.853-4.239,1.367,1.283h-1.844Zm.084,3.518-.561-1.395h1.844Zm1.924,1.15-1.238-.512,1.238-1.377Zm0-4.034-1.238-1.29,1.238-.547Zm2.862-.634.485,1.283h-1.855Zm-1.917-1.2,1.325.547-1.325,1.29Zm0,5.927v-1.931l1.325,1.286Zm1.848-1.192-1.3-1.395h1.977Z" transform="translate(-66.114 -190.602)" fill="#500130"/>
    <path id="Path_93" data-name="Path 93" d="M126.155,287.15l-1.185,1.182,1.185,1.185,1.192-1.185Z" transform="translate(-81.402 -187.026)" fill="#500130"/>
    <rect id="Rectangle_12" data-name="Rectangle 12" width="1.673" height="1.677" transform="translate(51.015 103.599)" fill="#500130"/>
    <rect id="Rectangle_13" data-name="Rectangle 13" width="1.67" height="1.677" transform="translate(36.972 103.599)" fill="#500130"/>
    <rect id="Rectangle_14" data-name="Rectangle 14" width="1.687" height="1.67" transform="translate(37.049 117.583)" fill="#500130"/>
    <path id="Path_94" data-name="Path 94" d="M97.312,316.34l-1.182,1.2,1.2,1.168,1.175-1.168Z" transform="translate(-62.616 -206.04)" fill="#500130"/>
    <path id="Path_95" data-name="Path 95" d="M153.71,317.408l1.189,1.178,1.185-1.178L154.9,316.23Z" transform="translate(-100.122 -205.968)" fill="#500130"/>
    <rect id="Rectangle_15" data-name="Rectangle 15" width="1.684" height="1.67" transform="translate(50.886 117.583)" fill="#500130"/>
    <path id="Path_96" data-name="Path 96" d="M125.08,346.182l1.2,1.182,1.185-1.182L126.283,345Z" transform="translate(-81.473 -224.708)" fill="#500130"/>
    <path id="Path_97" data-name="Path 97" d="M196.126,242.27l-.826.816.826.826.826-.826Z" transform="translate(-127.213 -157.793)" fill="#500130"/>
    <rect id="Rectangle_16" data-name="Rectangle 16" width="1.161" height="1.164" transform="translate(73.264 86.893)" fill="#500130"/>
    <path id="Path_98" data-name="Path 98" d="M192.1,254.388l-.746-1.8.746-1.684-1.37,1.422H188.5l.812-1.245-1.429-.272,1.576-1.6H191.4l-1.782-.652-.666-1.768v1.97l-1.541,1.6-.241-1.53-1.286.875v-2.172l1.395-1.461-1.67.837-1.743-.77,1.395,1.395v2.172l-1.307-.788-.209,1.443-1.586-1.6v-1.97l-.607,1.768-1.83.7h1.963l1.576,1.541-1.614.349.99,1.161h-2.238L179,250.891l.676,1.743L179,254.377l1.395-1.468h2.231l-.99,1.29,1.614.261-1.576,1.572h-1.963l1.83.631.586,1.743.021-1.938,1.52-1.517.275,1.569,1.307-.976v2.238l-1.395,1.363,1.712-.743,1.684.743-1.37-1.363V255.57l1.286.879.241-1.527,1.562,1.59.038,1.938.572-1.712,1.816-.676h-1.938l-1.576-1.517,1.517-.443-.9-1.164h2.231Zm-8.245-2.953.959.889h-1.283Zm.07,2.44-.394-.955h1.286Zm1.339.8-.868-.349.879-.952Zm0-2.806-.868-.889.868-.38Zm1.987-.439.349.889h-1.29Zm-1.332-.83.906.38-.906.889Zm0,4.1v-1.328l.906.9Zm1.279-.826-.906-.962h1.394Z" transform="translate(-116.595 -160.275)" fill="#500130"/>
    <rect id="Rectangle_17" data-name="Rectangle 17" width="1.168" height="1.164" transform="translate(63.503 86.893)" fill="#500130"/>
    <path id="Path_99" data-name="Path 99" d="M176.086,262.54l-.826.83.833.812.819-.812Z" transform="translate(-114.159 -170.996)" fill="#500130"/>
    <path id="Path_100" data-name="Path 100" d="M215.26,263.279l.83.823.83-.823-.83-.819Z" transform="translate(-140.214 -170.944)" fill="#500130"/>
    <rect id="Rectangle_18" data-name="Rectangle 18" width="1.164" height="1.161" transform="translate(73.181 96.602)" fill="#500130"/>
    <rect id="Rectangle_19" data-name="Rectangle 19" width="1.171" height="1.161" transform="translate(63.562 96.602)" fill="#500130"/>
    <path id="Path_101" data-name="Path 101" d="M195.41,283.266l.819.816.826-.816-.826-.826Z" transform="translate(-127.284 -183.959)" fill="#500130"/>
    <rect id="Rectangle_20" data-name="Rectangle 20" width="0.819" height="0.823" transform="translate(52.015 67.415)" fill="#500130"/>
    <path id="Path_102" data-name="Path 102" d="M156.214,196.964l-.523-1.262.523-1.189-.966,1H153.68l.568-.879-1.008-.188,1.109-1.13h1.367l-1.252-.457L154,191.616v1.395l-1.07,1.123-.167-1.077-.906.614v-1.523l.99-1.046-1.175.586-1.241-.537.99.983v1.524l-.931-.533-.15,1.011L149.221,193v-1.395l-.429,1.245-1.29.5H148.9l1.109,1.088-1.14.248.7.819h-1.576l-.987-.99.474,1.224L147,196.964l.983-1.046h1.576l-.7.91,1.14.185-1.109,1.109H147.5l1.29.439.418,1.241v-1.367l1.07-1.07.2,1.105.92-.7v1.576l-.99.959,1.21-.526,1.178.526-.962-.959v-1.576l.906.617.192-1.049,1.1,1.1.024,1.367.4-1.21,1.276-.471h-1.367l-1.109-1.07,1.067-.314-.628-.819h1.569Zm-5.8-2.092.673.628h-.9Zm.045,1.719-.272-.676h.9Zm.945.565-.61-.251.61-.673Zm0-1.977-.61-.624.61-.272Zm1.395-.307.241.628h-.91Zm-.938-.589.638.272-.638.624Zm0,2.894v-.945l.638.631Zm.9-.586-.628-.645h.973Z" transform="translate(-95.752 -124.462)" fill="#500130"/>
    <path id="Path_103" data-name="Path 103" d="M159.029,188.46l-.579.575.579.582.586-.582Z" transform="translate(-103.21 -122.743)" fill="#500130"/>
    <path id="Path_104" data-name="Path 104" d="M173.092,202.67l-.582.579.582.575.579-.575Z" transform="translate(-112.368 -131.999)" fill="#500130"/>
    <rect id="Rectangle_21" data-name="Rectangle 21" width="0.83" height="0.816" transform="translate(52.054 74.252)" fill="#500130"/>
    <rect id="Rectangle_22" data-name="Rectangle 22" width="0.819" height="0.823" transform="translate(58.887 67.415)" fill="#500130"/>
    <path id="Path_105" data-name="Path 105" d="M144.919,202.73l-.579.582.586.572.575-.572Z" transform="translate(-94.019 -132.038)" fill="#500130"/>
    <path id="Path_106" data-name="Path 106" d="M158.52,217.312l.579.575.579-.575-.579-.582Z" transform="translate(-103.255 -141.157)" fill="#500130"/>
    <rect id="Rectangle_23" data-name="Rectangle 23" width="0.826" height="0.816" transform="translate(58.821 74.252)" fill="#500130"/>
    <path id="Path_107" data-name="Path 107" d="M260.19,287.179l.659.655.666-.655-.666-.669Z" transform="translate(-169.48 -186.61)" fill="#500130"/>
    <path id="Path_108" data-name="Path 108" d="M276.14,271.132l.666.655.659-.655-.659-.662Z" transform="translate(-179.87 -176.162)" fill="#500130"/>
    <rect id="Rectangle_24" data-name="Rectangle 24" width="0.938" height="0.927" transform="translate(87.042 98.398)" fill="#500130"/>
    <path id="Path_109" data-name="Path 109" d="M257.529,263.986l-.6-1.436.6-1.356-1.116,1.143h-1.785l.648-1-1.157-.213,1.276-1.293h1.551l-1.429-.512-.523-1.408v1.579l-1.238,1.29-.2-1.231-1.028.7V258.5l1.13-1.178-1.349.676-1.395-.621,1.126,1.123v1.743L251,259.611l-.171,1.158-1.266-1.29v-1.572l-.509,1.395-1.471.561h1.579l1.259,1.245-1.293.279.8.938h-1.8L247,261.193l.547,1.395L247,263.982l1.13-1.175h1.8l-.8,1.046,1.293.213-1.259,1.262h-1.579l1.471.509.471,1.395.021-1.555,1.217-1.22.22,1.255,1.046-.781v1.8l-1.126,1.095,1.37-.6,1.346.6-1.091-1.095v-1.8l1.028.7.2-1.231,1.262,1.269.024,1.555.46-1.395,1.454-.54h-1.551l-1.276-1.213,1.227-.349-.718-.934h1.785Zm-6.624-2.364.767.7h-1.046Zm.049,1.966-.317-.777h1.046Zm1.077.634-.7-.279.7-.774Zm0-2.252-.7-.715.7-.307Zm1.59-.349.275.7H252.85Zm-1.07-.673.743.307-.743.715Zm0,3.3V263.17l.743.718Zm1.046-.662-.725-.777h1.1Z" transform="translate(-160.889 -167.596)" fill="#500130"/>
    <rect id="Rectangle_25" data-name="Rectangle 25" width="0.941" height="0.927" transform="translate(94.764 98.398)" fill="#500130"/>
    <rect id="Rectangle_26" data-name="Rectangle 26" width="0.941" height="0.938" transform="translate(94.831 90.589)" fill="#500130"/>
    <path id="Path_110" data-name="Path 110" d="M260.756,255.565l.669-.669-.669-.655-.666.655Z" transform="translate(-169.415 -165.59)" fill="#500130"/>
    <rect id="Rectangle_27" data-name="Rectangle 27" width="0.931" height="0.938" transform="translate(86.997 90.589)" fill="#500130"/>
    <path id="Path_111" data-name="Path 111" d="M244.675,270.53l-.655.666.662.652.662-.652Z" transform="translate(-158.947 -176.201)" fill="#500130"/>
  </g>
</svg>
