<svg id="Warstwa_2" data-name="Warstwa 2" xmlns="http://www.w3.org/2000/svg" width="158.53" height="113.76" viewBox="0 0 158.53 113.76">
  <g id="Layer_1" data-name="Layer 1" transform="translate(0 0)">
    <path id="Path_193" data-name="Path 193" d="M120.73,56.09a18.53,18.53,0,0,0-17.588,24.484,19.9,19.9,0,0,0-15.448,2.409,24.04,24.04,0,0,0-47.323.77,19.342,19.342,0,0,0-6.526-1.14,20.2,20.2,0,0,0-20.172,20.161,5.853,5.853,0,0,0,.031.732C8.067,105.051,0,108.308,0,119.826c0,8.367,6.8,15.542,16.142,16.309v.059l.237-.038c.146,0,.289.031.436.038l.063-.1a30.187,30.187,0,0,1,21.43,6.973c6.15,5.073,13.224,6.432,20.039,7.028,1.457.129,2.855.192,4.208.192,6.589,0,11.853-1.5,14.74-4.271,8.249-7.882,17.832-4.839,26.269-2.158,6.819,2.144,13.858,4.4,16.365-2.737a10.459,10.459,0,0,0,.3-6.317,19,19,0,0,0,10.543-17.655A16.953,16.953,0,0,0,118.391,101.9c.052-.593.08-1.182.08-1.775a20.008,20.008,0,0,0-1.377-7.255A18.571,18.571,0,1,0,120.73,56.09Zm-6.952,44.035a15.557,15.557,0,0,1-.314,3.092l-.481,2.364,2.371.411c6.045,1.063,10.459,5.745,10.734,11.39a14.587,14.587,0,0,1-8.322,13.447,7.157,7.157,0,0,0-7.482-1.461,6.177,6.177,0,0,0-4.124,5.874,4.993,4.993,0,0,0,2.859,4.658,3.1,3.1,0,0,0,3.431-1.018l-2.378-1.942a2.182,2.182,0,0,1-.788-1.743c-.038-.91.321-2.151,2.21-2.946a4.064,4.064,0,0,1,4.3.994c1.687,1.586,2.13,4.145,1.185,6.84-1.37,3.9-4.5,3.312-12.464.791-8.367-2.657-19.8-6.275-29.379,2.883-2.789,2.681-8.96,3.894-16.511,3.225-6.307-.554-12.9-1.7-18.286-6.3-6.973-5.927-13.774-7.461-18.387-7.67a23.215,23.215,0,0,1,16.183,1.917c7.586,3.835,16.734,7.464,24.279,7.464,4.288,0,8.067-1.168,10.741-4.128,5.927-6.519,13-5.794,19.23-5.16,5.554.575,11.3,1.154,13.269-5.107a8.1,8.1,0,0,0-2.046-8.751,9.2,9.2,0,0,0-9.3-1.764c-3.326,1.395-3.633,3.661-3.6,4.571a4.878,4.878,0,0,0,3.288,4.313,3.835,3.835,0,0,0,4.33-1.07l-2.367-2.05c-.1.119-.321.377-.9.178a1.835,1.835,0,0,1-1.213-1.45c-.021-.809,1.171-1.395,1.687-1.6a6.026,6.026,0,0,1,5.982,1.185c1.028.938,2.067,2.653,1.164,5.5-1.14,3.671-4.051,3.546-9.957,2.935-6.275-.638-14.886-1.524-21.863,6.167-6.408,7.067-22.347.509-31.286-4.03a26.758,26.758,0,0,0-23.03-.61,14.224,14.224,0,0,1-6.366-2.2c3.776-2.371,15.211-8.214,27.831-1.314,7.6,4.159,14.064,5.578,19.349,5.578a25.246,25.246,0,0,0,15.4-4.926c3.873-2.946,4.044-8.228,2.238-11.7-1.565-3.023-5.093-5.641-10.309-4a5.467,5.467,0,0,0-3.8,6.624c.624,2.562,3.117,4.839,7.272,4.1l-.533-3.078c-2.3.387-3.427-.652-3.7-1.764a2.381,2.381,0,0,1,1.7-2.89c4.107-1.314,5.979,1.283,6.589,2.44,1.231,2.378,1.046,5.927-1.36,7.774-3.734,2.841-14.266,8.451-31.349-.913-14.942-8.172-28.48-.293-31.8,1.938a11.01,11.01,0,0,1-3-7.384c0-7.774,4.239-10.305,12.08-12.247l1.771-.669.049-1.781-.1-.952a9.354,9.354,0,0,1-.132-1.374A15.493,15.493,0,0,1,33.845,87.32a15.225,15.225,0,0,1,7.509,2.033l3.566,2-.07-4.086A18.86,18.86,0,0,1,63.13,68.288l1.018-.028A18.9,18.9,0,0,1,83.3,85.964a16.036,16.036,0,0,1-.045,1.614l-.213,6.035L87.279,89.3a15.4,15.4,0,0,1,20.377-1.457,18.236,18.236,0,0,0,1.659,1.45A15.416,15.416,0,0,1,113.779,100.125Zm6.952-10a15.357,15.357,0,0,1-5.578-1.046,20.255,20.255,0,0,0-8.018-7.046,15.465,15.465,0,1,1,13.6,8.106Z" transform="translate(0 -36.53)" fill="#500130"/>
    <path id="Path_194" data-name="Path 194" d="M280.384,42.982a1.293,1.293,0,1,0,1.949-1.7L272.69,30.267a1.3,1.3,0,1,0-1.949,1.708Z" transform="translate(-176.12 -19.395)" fill="#500130"/>
    <path id="Path_195" data-name="Path 195" d="M343.852,17.216a1.29,1.29,0,0,0,1.279-1.3l-.1-14.642a1.3,1.3,0,0,0-2.594.017l.1,14.642a1.293,1.293,0,0,0,1.307,1.283Z" transform="translate(-223.055 0.015)" fill="#500130"/>
    <path id="Path_196" data-name="Path 196" d="M238.157,98.319l14.587,1.192a1.3,1.3,0,1,0,.206-2.587L238.38,95.732a1.3,1.3,0,0,0-.209,2.587Z" transform="translate(-154.36 -62.349)" fill="#500130"/>
    <path id="Path_197" data-name="Path 197" d="M414.256,146.756,401.3,139.951a1.294,1.294,0,1,0-1.206,2.29l12.945,6.812a1.3,1.3,0,0,0,1.213-2.3Z" transform="translate(-260.162 -91.057)" fill="#500130"/>
    <path id="Path_198" data-name="Path 198" d="M421.458,89.234l-14.531,1.7a1.295,1.295,0,0,0,.3,2.573l14.538-1.7a1.3,1.3,0,0,0-.3-2.573Z" transform="translate(-264.313 -58.117)" fill="#500130"/>
    <path id="Path_199" data-name="Path 199" d="M363.913,164.9a1.293,1.293,0,1,0-2.44.858l4.863,13.806a1.294,1.294,0,1,0,2.44-.861Z" transform="translate(-235.405 -106.845)" fill="#500130"/>
    <path id="Path_200" data-name="Path 200" d="M385.113,38.338l9.009-11.529a1.3,1.3,0,1,0-2.039-1.6L383.07,36.748a1.294,1.294,0,1,0,2.043,1.59Z" transform="translate(-249.343 -16.093)" fill="#500130"/>
  </g>
</svg>
