<svg id="Warstwa_2" data-name="Warstwa 2" xmlns="http://www.w3.org/2000/svg" width="124.879" height="143.207" viewBox="0 0 124.879 143.207">
  <g id="Layer_1" data-name="Layer 1" transform="translate(0 0)">
    <path id="Path_245" data-name="Path 245" d="M137.43,272.491l.5-1.123,17.484-39.245-16.985-.045,14.465-33.6h1.391l-9.79,29.247,18.24.136Z" transform="translate(-89.518 -129.283)" fill="#500130"/>
    <path id="Path_246" data-name="Path 246" d="M113.033,36.6c.049-.565.077-1.133.077-1.694A19.276,19.276,0,0,0,93.851,15.687a19.049,19.049,0,0,0-10.11,2.88,22.962,22.962,0,0,0-45.2.711,18.76,18.76,0,0,0-6.23-1.074A19.279,19.279,0,0,0,13.056,37.459c0,.227,0,.46.021.7C7.7,39.624,0,42.73,0,53.733,0,61.9,6.8,68.919,16.037,69.376L18.875,65l-.983.031h-.7c-7.014,0-12.732-5.069-12.735-11.3C4.459,46.3,8.5,43.891,16,42.029l1.684-.641.049-1.694-.084-.913a9.214,9.214,0,0,1-.122-1.318A14.785,14.785,0,0,1,32.311,22.684a14.5,14.5,0,0,1,7.178,1.945l3.392,1.9-.07-3.9A18.033,18.033,0,0,1,60.268,4.5l.973-.021A18.04,18.04,0,0,1,79.526,21.37c.017.349,0,.7-.045,1.551l-.2,5.759,4.044-4.1a14.767,14.767,0,0,1,25.307,10.344,15.05,15.05,0,0,1-.3,2.956l-.457,2.245,2.259.4c5.773,1.008,9.988,5.484,10.253,10.874s-3.455,11.561-9.113,13.339l1.5,4.184a18.127,18.127,0,0,0,12.09-17.735A16.22,16.22,0,0,0,113.033,36.6Z" transform="translate(0 0.002)" fill="#500130"/>
    <path id="Path_247" data-name="Path 247" d="M83.189,229.979c0,.54-.617.976-1.395.976h0c-.764,0-1.395-.436-1.395-.976v-53.79c0-.533.617-.969,1.395-.969h0c.764,0,1.395.436,1.395.969Z" transform="translate(-52.37 -114.132)" fill="#500130"/>
    <path id="Path_248" data-name="Path 248" d="M119.379,253.7c0,.544-.617.983-1.395.983h0c-.764,0-1.395-.439-1.395-.983V199.93c0-.547.617-.98,1.395-.98h0c.763,0,1.395.432,1.395.98Z" transform="translate(-75.943 -129.59)" fill="#500130"/>
    <path id="Path_249" data-name="Path 249" d="M217.292,268.435c0,.54-.621.973-1.377.973h0c-.767,0-1.395-.432-1.395-.973V214.659c0-.53.617-.969,1.395-.969h0c.757,0,1.377.439,1.377.969Z" transform="translate(-139.732 -139.191)" fill="#500130"/>
    <path id="Path_250" data-name="Path 250" d="M258.332,220.025c0,.54-.621.976-1.377.976h0c-.76,0-1.395-.436-1.395-.976V166.249c0-.53.621-.969,1.395-.969h0c.757,0,1.377.439,1.377.969Z" transform="translate(-166.464 -107.658)" fill="#500130"/>
  </g>
</svg>
